<svg xmlns="http://www.w3.org/2000/svg" viewBox="0 0 185 125"><path d="M2.4 54c0-7.9 7.9-13.8 16.6-13.8h4.8c2 0 4.7-1.1 4.7-3.3 0-3.4-3.6-6.7-8.7-6.7-3.3 0-6.2 1.3-9.8 6.2l-5.7-4.3C7.8 26.2 14.4 23 19.8 23c8.5 0 15.9 6.2 15.9 13.8V54c0 7.8-7.9 13.8-16.5 13.8-9 0-16.8-5.9-16.8-13.8zm7.2 0c0 3.4 4.1 6.7 9.4 6.7 5.4 0 9.4-3.4 9.4-6.7v-8s-.6 1.3-9.4 1.2c-5.3 0-9.4 3.3-9.4 6.8zm67.2-30.9v45.1c0 7.9-7.4 14.3-15.8 14.3-4.6 0-11.9-2.3-15.5-9.1l5.7-4.3c2.3 4.5 6.3 6.2 9.6 6.2 4.9 0 8.6-3.1 8.6-6.7 0-1.2-1-1.8-2.5-1.8h-1.5c-12.1 0-22-9.8-22-21.9 0-12.1 9.9-22 21.9-22h11.5zm-7.2 37.3V29.9h-4c-8.2 0-14.9 6.7-14.9 14.9C50.6 53 57.3 60 66.1 60c2.3 0 3.5.4 3.5.4zM89 67.8V40.5c0-9.5 7.3-17.4 16.4-17.4h1.8v7.1h-1.8c-5 0-9.3 4.5-9.3 10.3v27.3H89zm21.9-22.3c0-12.1 8.6-22.4 19.6-22.4 12 0 19.6 11.2 19.6 22.4 0 12-8.7 22.3-19.6 22.3-11.9 0-19.6-11.1-19.6-22.3zm7.1-.1c0 8.7 5.9 15.3 12.5 15.3S143 54.2 143 45.4c0-8.7-5.9-15.3-12.5-15.3S118 36.8 118 45.4zm-9.6 78.6V96.9c0-6.5-4.8-11.7-10.7-11.7-5.9 0-10.7 5.2-10.7 11.7V124h-5.1V96.9c0-9.3 7.2-16.9 15.9-16.9s15.9 7.6 15.9 16.9V124h-5.3zm14.6-21.4c0-12 7.9-22.6 18.5-22.6 8.3 0 14.1 4.7 14.1 11 0 6.8-6.7 11.8-15.8 11.8h-10.1c-1.2 0-1.4 1.2-1.4 1.8 0 6.2 6.2 14.2 13.2 14.2 4.3 0 7.4-1.4 10.9-6l4.1 3.1c-3.6 4.8-7.6 8.1-15 8.1-11.1 0-18.5-10.1-18.5-21.4zm5.5-4.9c.8-.1 1.1-.1 1.2-.1h10c6.5 0 10.7-2.9 10.7-6.6 0-2.6-2.5-5.9-8.9-5.9-6.2 0-11.5 5.3-13 12.6zm53.3 21.2h.7v5.1h-.7c-8.7 0-15.9-7.8-15.9-17V65h5.1v16c.7-.1 1.5-.2 2.3-.2h9.2v5.1h-9.2c-2.3 0-2.4 1.1-2.4 1.7V107c.2 6.6 5 11.9 10.9 11.9z" fill="#999"/><path d="M161.9 16.4c-4.7 1.1-7.6 5.8-6.5 10.5 1.1 4.7 5.8 7.6 10.5 6.5 4.7-1.1 7.6-5.8 6.5-10.5-1.1-4.7-5.8-7.6-10.5-6.5z" fill="#178895"/><path d="M132.1 4.9c.5 2.1 2.6 3.4 4.7 2.9s3.4-2.6 2.9-4.7-2.6-3.4-4.7-2.9c-2 .5-3.3 2.6-2.9 4.7z" fill="#e3d72f"/><path d="M146.7 3.8c-1.9 3.1-1 7.1 2.1 9 3.1 1.9 7.1 1 9-2.1 1.9-3.1 1-7.1-2.1-9-3-2-7.1-1-9 2.1z" fill="#3c9741"/></svg>