<svg xmlns="http://www.w3.org/2000/svg" viewBox="0 0 100 30"><style>svg *{transition:all .1s ease-out}.st0{fill:#999}</style><g id="name"><path class="st0" d="M0 19.9c0-2.9 2.8-5 5.9-5h1.7c.7 0 1.7-.4 1.7-1.2 0-1.2-1.3-2.4-3.1-2.4-1.2 0-2.2.5-3.5 2.3L.6 12c1.3-2.1 3.6-3.3 5.6-3.3 3 0 5.7 2.2 5.7 5v6.2c0 2.9-2.8 5-5.9 5-3.2 0-6-2.1-6-5zm2.6 0c0 1.3 1.5 2.5 3.4 2.5s3.4-1.2 3.4-2.5V17s-.2.5-3.4.4c-1.9 0-3.4 1.2-3.4 2.5zm24-11.2v16.4c0 2.9-2.7 5.2-5.7 5.2-1.7 0-4.3-.9-5.6-3.3l2.1-1.5c.8 1.6 2.3 2.3 3.4 2.3 1.7 0 3.1-1.1 3.1-2.4 0-.4-.3-.6-.9-.6h-.6c-4.3 0-7.9-3.6-7.9-8s3.6-8 7.9-8h4.2zm-2.5 13.5V11.1h-1.4c-2.9 0-5.3 2.4-5.3 5.4 0 3 2.4 5.5 5.5 5.5.8.1 1.2.2 1.2.2zm7 2.7V15c0-3.4 2.6-6.3 5.9-6.3h.6v2.6H37c-1.8 0-3.3 1.6-3.3 3.7v9.9h-2.6zm7.8-8.1c0-4.4 3.1-8.2 7-8.2 4.3 0 7 4.1 7 8.2 0 4.4-3.1 8.1-7 8.1-4.2 0-7-4-7-8.1zm2.5 0c0 3.2 2.1 5.6 4.5 5.6s4.5-2.4 4.5-5.6c0-3.2-2.1-5.6-4.5-5.6s-4.5 2.4-4.5 5.6z" id="agro"/><path class="st0" d="M73.4 24.5v-9.9c0-2.4-1.7-4.3-3.8-4.3s-3.8 1.9-3.8 4.3v9.9H64v-9.9c0-3.4 2.6-6.1 5.7-6.1s5.7 2.8 5.7 6.1v9.9h-2zm5.3-7.8c0-4.4 2.8-8.2 6.6-8.2 3 0 5 1.7 5 4 0 2.5-2.4 4.3-5.7 4.3H81c-.4 0-.5.5-.5.6 0 2.3 2.2 5.2 4.7 5.2 1.5 0 2.7-.5 3.9-2.2l1.5 1.1c-1.3 1.8-2.7 3-5.4 3-3.9 0-6.5-3.7-6.5-7.8zm1.9-1.8c.3-.1.4-.1.4-.1h3.6c2.3 0 3.8-1 3.8-2.4 0-1-.9-2.1-3.2-2.1-2.1 0-4 2-4.6 4.6zm19.1 7.7h.3v1.9h-.3c-3.1 0-5.7-2.8-5.7-6.2V3h1.8v5.8c.3-.1.5-.1.8-.1h3.3v1.9h-3.3c-.8 0-.8.4-.8.6v7.1c.1 2.4 1.8 4.3 3.9 4.3z" id="net"/></g><g id="circle"><path d="M57.2 6.2c-1.7.4-2.7 2.1-2.3 3.8.4 1.7 2.1 2.8 3.8 2.4 1.7-.4 2.7-2.1 2.3-3.8-.5-1.7-2.1-2.8-3.8-2.4z" fill="#178895"/><path d="M46.5 2c.2.8.9 1.3 1.7 1.1.8-.2 1.2-1 1.1-1.7-.2-.8-.9-1.3-1.7-1.1-.8.2-1.3 1-1.1 1.7z" fill="#e3d72f"/><path d="M51.7 1.6c-.7 1.1-.3 2.6.8 3.3 1.1.7 2.6.4 3.2-.8.7-1.1.3-2.6-.8-3.3-1.1-.7-2.5-.3-3.2.8z" fill="#3c9741"/></g></svg>