<?xml version="1.0" encoding="UTF-8"?>
<svg xmlns="http://www.w3.org/2000/svg" xmlns:xlink="http://www.w3.org/1999/xlink" x="0px" y="0px" viewBox="0 0 100 30" xml:space="preserve">
  <style type="text/css">
    svg * {
      transition: all .1s ease-out;
    }
    .st0{fill:#999999;}
    .st1{fill:#178895;}
    .st2{fill:#E3D72F;}
    .st3{fill:#3C9741;}
  </style>
  <g id="name">
    <g id="agro">
      <path class="st0" d="M0,19.9c0-2.9,2.8-5,5.9-5h1.7c0.7,0,1.7-0.4,1.7-1.2c0-1.2-1.3-2.4-3.1-2.4c-1.2,0-2.2,0.5-3.5,2.3L0.6,12         c1.3-2.1,3.6-3.3,5.6-3.3c3,0,5.7,2.2,5.7,5v6.2c0,2.9-2.8,5-5.9,5C2.8,24.9,0,22.8,0,19.9z M2.6,19.9c0,1.3,1.5,2.5,3.4,2.5         c1.9,0,3.4-1.2,3.4-2.5V17c0,0-0.2,0.5-3.4,0.4C4.1,17.4,2.6,18.6,2.6,19.9z"></path>
      <path class="st0" d="M26.6,8.7v16.4c0,2.9-2.7,5.2-5.7,5.2c-1.7,0-4.3-0.9-5.6-3.3l2.1-1.5c0.8,1.6,2.3,2.3,3.4,2.3         c1.7,0,3.1-1.1,3.1-2.4c0-0.4-0.3-0.6-0.9-0.6h-0.6c-4.3,0-7.9-3.6-7.9-8c0-4.4,3.6-8,7.9-8H26.6z M24.1,22.2V11.1h-1.4         c-2.9,0-5.3,2.4-5.3,5.4c0,3,2.4,5.5,5.5,5.5C23.7,22.1,24.1,22.2,24.1,22.2z"></path>
      <path class="st0" d="M31.1,24.9V15c0-3.4,2.6-6.3,5.9-6.3h0.6v2.6h-0.6c-1.8,0-3.3,1.6-3.3,3.7v9.9H31.1z"></path>
      <path class="st0" d="M38.9,16.8c0-4.4,3.1-8.2,7-8.2c4.3,0,7,4.1,7,8.2c0,4.4-3.1,8.1-7,8.1C41.7,24.9,38.9,20.9,38.9,16.8z         M41.4,16.8c0,3.2,2.1,5.6,4.5,5.6c2.4,0,4.5-2.4,4.5-5.6c0-3.2-2.1-5.6-4.5-5.6C43.5,11.2,41.4,13.6,41.4,16.8z"></path>
    </g>
    <g id="net">
      <path class="st0" d="M73.4,24.5v-9.9c0-2.4-1.7-4.3-3.8-4.3s-3.8,1.9-3.8,4.3v9.9h-1.8v-9.9c0-3.4,2.6-6.1,5.7-6.1         c3.1,0,5.7,2.8,5.7,6.1v9.9H73.4z"></path>
      <path class="st0" d="M78.7,16.7c0-4.4,2.8-8.2,6.6-8.2c3,0,5,1.7,5,4c0,2.5-2.4,4.3-5.7,4.3h-3.6c-0.4,0-0.5,0.5-0.5,0.6         c0,2.3,2.2,5.2,4.7,5.2c1.5,0,2.7-0.5,3.9-2.2l1.5,1.1c-1.3,1.8-2.7,3-5.4,3C81.3,24.5,78.7,20.8,78.7,16.7z M80.6,14.9         c0.3-0.1,0.4-0.1,0.4-0.1h3.6c2.3,0,3.8-1,3.8-2.4c0-1-0.9-2.1-3.2-2.1C83.1,10.3,81.2,12.3,80.6,14.9z"></path>
      <path class="st0" d="M99.7,22.6h0.3v1.9h-0.3c-3.1,0-5.7-2.8-5.7-6.2V3h1.8v5.8c0.3-0.1,0.5-0.1,0.8-0.1h3.3v1.9h-3.3         c-0.8,0-0.8,0.4-0.8,0.6v7.1C95.9,20.7,97.6,22.6,99.7,22.6z"></path>
    </g>
  </g>
  <g id="circle">
    <g>
      <path class="st1" d="M57.2,6.2c-1.7,0.4-2.7,2.1-2.3,3.8c0.4,1.7,2.1,2.8,3.8,2.4c1.7-0.4,2.7-2.1,2.3-3.8         C60.5,6.9,58.9,5.8,57.2,6.2z"></path>
      <path class="st2" d="M46.5,2c0.2,0.8,0.9,1.3,1.7,1.1c0.8-0.2,1.2-1,1.1-1.7c-0.2-0.8-0.9-1.3-1.7-1.1C46.8,0.5,46.3,1.3,46.5,2z"></path>
      <path class="st3" d="M51.7,1.6c-0.7,1.1-0.3,2.6,0.8,3.3c1.1,0.7,2.6,0.4,3.2-0.8C56.4,3,56,1.5,54.9,0.8         C53.8,0.1,52.4,0.5,51.7,1.6z"></path>
    </g>
  </g>
</svg>
