<?xml version="1.0" encoding="utf-8"?>
<!-- Generator: Adobe Illustrator 22.0.1, SVG Export Plug-In . SVG Version: 6.00 Build 0)  -->
<svg version="1.1" id="circule" xmlns="http://www.w3.org/2000/svg" xmlns:xlink="http://www.w3.org/1999/xlink" x="0px" y="0px"
	 viewBox="0 0 36.8 30" style="enable-background:new 0 0 36.8 30;" xml:space="preserve">
<style type="text/css">
	.st0{fill:#178895;}
	.st1{fill:#E3D72F;}
	.st2{fill:#3C9741;}
</style>
<g>
	<path class="st0" d="M26.4,14.8c-4.1,1-6.7,5.2-5.7,9.4c1,4.2,5.1,6.8,9.2,5.8c4.1-1,6.7-5.2,5.7-9.4
		C34.7,16.4,30.5,13.8,26.4,14.8z"/>
	<path class="st1" d="M0.4,4.5c0.4,1.9,2.3,3.1,4.1,2.6c1.9-0.4,3-2.3,2.6-4.2C6.6,1,4.8-0.1,2.9,0.3C1.1,0.7-0.1,2.6,0.4,4.5z"/>
	<path class="st2" d="M13.1,3.5c-1.7,2.7-0.8,6.4,1.8,8.1c2.7,1.7,6.2,0.9,7.9-1.9c1.7-2.7,0.8-6.4-1.8-8.1
		C18.3-0.1,14.8,0.7,13.1,3.5z"/>
</g>
</svg>
