<?xml version="1.0" standalone="no"?>
<!DOCTYPE svg PUBLIC "-//W3C//DTD SVG 1.1//EN" "http://www.w3.org/Graphics/SVG/1.1/DTD/svg11.dtd" >
<svg xmlns="http://www.w3.org/2000/svg">
<metadata>Generated by IcoMoon</metadata>
<defs>
<font id="icomoon" horiz-adv-x="1024">
<font-face units-per-em="1024" ascent="960" descent="-64" />
<missing-glyph horiz-adv-x="1024" />
<glyph unicode="&#x20;" horiz-adv-x="512" d="" />
<glyph unicode="&#xe900;" glyph-name="address-card" horiz-adv-x="1331" d="M1081.6 832h-832c-53.020 0-96-42.98-96-96v-576c0-53.020 42.98-96 96-96h832c53.020 0 96 42.98 96 96v576c0 53.020-42.98 96-96 96zM1069.601 160h-808c-6.628 0-12.001 5.373-12.001 12.001v551.997c0 6.628 5.373 12.001 12.001 12.001h808c6.628 0 12.001-5.373 12.001-12.001v-552c-0.003-6.625-5.376-11.999-12.001-11.999zM961.6 512h-208c-13.256 0-24 10.747-24 24v48c0 13.253 10.744 24 24 24h208c13.256 0 24-10.747 24-24v-48c0-13.253-10.744-24-24-24zM961.6 352h-208c-13.256 0-24 10.744-24 24v48c0 13.256 10.744 24 24 24h208c13.256 0 24-10.744 24-24v-48c0-13.256-10.744-24-24-24zM393.6 544c0 61.857 50.143 112 112 112s112-50.143 112-112-50.143-112-112-112-112 50.143-112 112zM665.6 364.285v-84.285c0-13.256-10.747-24-24-24h-272c-13.253 0-24 10.744-24 24v84.285c0 21.199 13.906 39.885 34.207 45.978l26.929 8.077c27.238-21.476 61.568-34.34 98.865-34.34s71.626 12.864 98.867 34.34l26.929-8.077c20.301-6.093 34.204-24.781 34.204-45.978z" />
<glyph unicode="&#xe901;" glyph-name="address-card-solid" horiz-adv-x="1331" d="M1081.6 832h-832c-53.020 0-96-42.98-96-96v-576c0-53.020 42.98-96 96-96h832c53.020 0 96 42.98 96 96v576c0 53.020-42.98 96-96 96zM505.6 704c88.366 0 160-71.634 160-160s-71.634-160-160-160-160 71.634-160 160 71.634 160 160 160zM729.6 240c0-26.509-21.491-48-48-48h-352c-26.509 0-48 21.491-48 48v59.794c0 21.43 14.208 40.266 34.813 46.152l57.876 16.538c37.957-27.581 83.484-42.483 131.31-42.483s93.353 14.902 131.313 42.483l57.874-16.538c20.608-5.885 34.813-24.719 34.813-46.149v-59.796zM1049.6 344c0-13.256-10.744-24-24-24h-208c-13.256 0-24 10.744-24 24v16c0 13.256 10.744 24 24 24h208c13.256 0 24-10.744 24-24v-16zM1049.6 472c0-13.253-10.744-24-24-24h-208c-13.256 0-24 10.747-24 24v16c0 13.253 10.744 24 24 24h208c13.256 0 24-10.747 24-24v-16zM1049.6 600c0-13.253-10.744-24-24-24h-208c-13.256 0-24 10.747-24 24v16c0 13.253 10.744 24 24 24h208c13.256 0 24-10.747 24-24v-16z" />
<glyph unicode="&#xe902;" glyph-name="angle-double-down-solid" horiz-adv-x="1331" d="M631.601 447.401l-272 272c-18.801 18.801-18.801 49.201 0 67.799l45.199 45.199c18.801 18.801 49.201 18.801 67.799 0l192.801-192.801 192.801 192.801c18.801 18.801 49.201 18.801 67.799 0l45.601-45c18.801-18.801 18.801-49.201 0-67.799l-272-272c-18.801-19-49.201-19-68.001-0.2zM699.599 63.401l272 272c18.801 18.801 18.801 49.201 0 67.799l-45.199 45.199c-18.801 18.801-49.201 18.801-67.799 0l-193.001-192.599-192.801 192.801c-18.801 18.801-49.201 18.801-67.799 0l-45.399-45.199c-18.801-18.801-18.801-49.201 0-67.799l272-272c18.801-19.003 49.201-19.003 67.999-0.202z" />
<glyph unicode="&#xe903;" glyph-name="angle-double-left-solid" horiz-adv-x="1331" d="M665.001 481.999l272 272c18.801 18.801 49.201 18.801 67.799 0l45.199-45.199c18.801-18.801 18.801-49.201 0-67.799l-192.599-193.001 192.801-192.801c18.801-18.801 18.801-49.201 0-67.799l-45.199-45.399c-18.801-18.801-49.201-18.801-67.799 0l-272 272c-19.003 18.798-19.003 49.198-0.202 67.999v0zM281.001 414.001l272-272c18.801-18.801 49.201-18.801 67.799 0l45.199 45.199c18.801 18.801 18.801 49.201 0 67.799l-192.599 193.001 192.801 192.801c18.801 18.801 18.801 49.201 0 67.799l-45.199 45.399c-18.801 18.801-49.201 18.801-67.799 0l-272-272c-19.003-18.801-19.003-49.201-0.202-67.999z" />
<glyph unicode="&#xe904;" glyph-name="angle-double-right-solid" horiz-adv-x="1331" d="M666.199 414.001l-272-272c-18.801-18.801-49.201-18.801-67.799 0l-45.199 45.199c-18.801 18.801-18.801 49.201 0 67.799l192.801 192.801-192.801 192.801c-18.801 18.801-18.801 49.201 0 67.799l45 45.601c18.801 18.801 49.201 18.801 67.799 0l272-272c19-18.803 19-49.203 0.2-68.001zM1050.199 481.999l-272 272c-18.801 18.801-49.201 18.801-67.799 0l-45.199-45.199c-18.801-18.801-18.801-49.201 0-67.799l192.801-192.801-192.801-192.801c-18.801-18.801-18.801-49.201 0-67.799l45.199-45.199c18.801-18.801 49.201-18.801 67.799 0l272 272c18.801 18.399 18.801 48.799 0 67.599z" />
<glyph unicode="&#xe905;" glyph-name="angle-double-up-solid" horiz-adv-x="1331" d="M699.599 448.599l272-272c18.801-18.801 18.801-49.201 0-67.799l-45.199-45.199c-18.801-18.801-49.201-18.801-67.799 0l-193.001 192.599-192.801-192.801c-18.801-18.801-49.201-18.801-67.799 0l-45.399 45.199c-18.801 18.801-18.801 49.201 0 67.799l272 272c18.801 19.003 49.201 19.003 67.999 0.202zM631.601 832.599l-272-272c-18.801-18.801-18.801-49.201 0-67.799l45.199-45.199c18.801-18.801 49.201-18.801 67.799 0l192.801 192.801 192.801-192.801c18.801-18.801 49.201-18.801 67.799 0l45.199 45.199c18.801 18.801 18.801 49.201 0 67.799l-272 272c-18.399 18.801-48.799 18.801-67.599 0v0z" />
<glyph unicode="&#xe906;" glyph-name="angle-down-solid" horiz-adv-x="1331" d="M631.601 255.401l-272 272c-18.801 18.801-18.801 49.201 0 67.799l45.199 45.199c18.801 18.801 49.201 18.801 67.799 0l192.801-192.801 192.801 192.801c18.801 18.801 49.201 18.801 67.799 0l45.199-45.199c18.801-18.801 18.801-49.201 0-67.799l-272-272c-18.399-18.801-48.799-18.801-67.599 0v0z" />
<glyph unicode="&#xe907;" glyph-name="angle-left-solid" horiz-adv-x="1331" d="M473.001 481.999l272 272c18.801 18.801 49.201 18.801 67.799 0l45.199-45.199c18.801-18.801 18.801-49.201 0-67.799l-192.599-193.001 192.801-192.801c18.801-18.801 18.801-49.201 0-67.799l-45.199-45.399c-18.801-18.801-49.201-18.801-67.799 0l-272 272c-19.003 18.798-19.003 49.198-0.202 67.999z" />
<glyph unicode="&#xe908;" glyph-name="angle-right-solid" horiz-adv-x="1331" d="M858.199 414.001l-272-272c-18.801-18.801-49.201-18.801-67.799 0l-45.199 45.199c-18.801 18.801-18.801 49.201 0 67.799l192.801 192.801-192.801 192.801c-18.801 18.801-18.801 49.201 0 67.799l45 45.601c18.801 18.801 49.201 18.801 67.799 0l272-272c19-18.803 19-49.203 0.2-68.001z" />
<glyph unicode="&#xe909;" glyph-name="angle-up-solid" horiz-adv-x="1331" d="M699.599 640.612l272-272c18.801-18.801 18.801-49.201 0-67.799l-45.199-45.199c-18.801-18.801-49.201-18.801-67.799 0l-193.001 192.599-192.801-192.801c-18.801-18.801-49.201-18.801-67.799 0l-45.399 45.199c-18.801 18.801-18.801 49.201 0 67.799l272 272c18.801 19.003 49.201 19.003 67.999 0.202z" />
<glyph unicode="&#xe90a;" glyph-name="apple" horiz-adv-x="1331" d="M712 684.8c-12.401-3.799-30.6-6.999-55.8-9.201 2.199 113.4 59.799 193.201 176 220.201 18.601-83.2-52.198-188.201-120.2-211v0zM954.601 539.4c12.8 18.801 33.201 39.8 61.199 63.401-44.6 55.201-96.2 88.599-170.199 88.599-70.799 0-130.401-36.401-174.001-36.401-37 0-103.8 32.2-169.001 32.2-139.2 0-213-136.2-213-278.001 0-157.601 119.401-409.201 240.399-409.201 47.601 0 90.401 36.001 147 36.001 58.601 0 105.6-34.401 160.599-34.401 92.001 0 177.201 155 204.001 239.401-93.599 28.6-168.799 180.401-86.999 298.401z" />
<glyph unicode="&#xe90b;" glyph-name="app-store-ios" horiz-adv-x="1331" d="M1017.6 896h-704c-53 0-96-43-96-96v-704c0-53 43-96 96-96h704c53 0 96 43 96 96v704c0 53-43 96-96 96zM471.601 190.999c-11-19.2-35.599-25.6-54.6-14.6-19.2 11-25.6 35.599-14.6 54.6l28.6 49.4c32.2 9.8 58.601 2.199 79.201-22.799l-38.602-66.601zM749.399 298.801h-363.799c-22.001 0-40 17.999-40 40s17.999 40 40 40h102.001l130.801 226.401-41.001 70.799c-11 19.2-4.401 43.599 14.6 54.6 19.2 11 43.599 4.401 54.6-14.6l17.8-30.799 17.8 30.799c11 19.2 35.599 25.6 54.6 14.6 19.2-11 25.6-35.599 14.6-54.6l-171.599-297.201h124.201c40.399 0 62.999-47.401 45.399-80v0zM945.6 298.801h-57.999l39.201-67.799c11-19.2 4.401-43.599-14.6-54.6-19.2-11-43.599-4.401-54.6 14.6-65.8 113.8-115 199.401-148.001 256.2-33.4 57.999-9.6 116.001 14.2 135.601 26.199-45.399 65.4-113.4 117.801-204.001h104c22.001 0 40-17.999 40-40-0.003-22.2-18.002-40-40.003-40v0z" />
<glyph unicode="&#xe90c;" glyph-name="archive-solid" horiz-adv-x="1331" d="M1129.6 704h-928c-26.509 0-48 21.491-48 48v96c0 26.509 21.491 48 48 48h928c26.509 0 48-21.491 48-48v-96c0-26.509-21.491-48-48-48zM1113.6 48v544c0 26.509-21.491 48-48 48h-800c-26.509 0-48-21.491-48-48v-544c0-26.509 21.491-48 48-48h800c26.509 0 48 21.491 48 48zM769.6 448h-208c-13.253 0-24 10.747-24 24v16c0 13.253 10.747 24 24 24h208c13.256 0 24-10.747 24-24v-16c0-13.253-10.744-24-24-24z" />
<glyph unicode="&#xe90d;" glyph-name="arrow-alt-circle-down_solid" horiz-adv-x="1331" d="M1161.6 448c0-273.999-222.001-496-496-496s-496 222.001-496 496 222.001 496 496 496 496-222.001 496-496zM577.6 680v-232h-141.801c-21.399 0-32.2-25.999-17.001-41.001l229.801-228.6c9.4-9.4 24.399-9.4 33.8 0l229.801 228.6c15.201 15.201 4.401 41.001-17.001 41.001h-141.601v232c0 13.199-10.801 24-24 24h-128c-13.197 0-23.997-10.801-23.997-24z" />
<glyph unicode="&#xe90e;" glyph-name="arrow-alt-circle-left_solid" horiz-adv-x="1331" d="M665.6-48c-273.999 0-496 222.001-496 496s222.001 496 496 496 496-222.001 496-496-222.001-496-496-496zM897.6 536h-232v141.801c0 21.399-25.999 32.2-41.001 17.001l-228.6-229.801c-9.4-9.4-9.4-24.399 0-33.8l228.6-229.801c15.201-15.201 41.001-4.401 41.001 17.001v141.601h232c13.199 0 24 10.801 24 24v128c0 13.197-10.801 23.997-24 23.997z" />
<glyph unicode="&#xe90f;" glyph-name="arrow-alt-circle-right_solid" horiz-adv-x="1331" d="M665.6 944c273.999 0 496-222.001 496-496s-222.001-496-496-496-496 222.001-496 496 222.001 496 496 496zM433.6 360h232v-141.801c0-21.399 25.999-32.2 41.001-17.001l228.6 229.801c9.4 9.4 9.4 24.399 0 33.8l-228.6 230.001c-15.201 15.201-41.001 4.401-41.001-17.001v-141.801h-232c-13.199 0-24-10.801-24-24v-128c0-13.197 10.801-23.997 24-23.997z" />
<glyph unicode="&#xe910;" glyph-name="arrow-alt-circle-up_solid" horiz-adv-x="1331" d="M169.6 448c0 273.999 222.001 496 496 496s496-222.001 496-496-222.001-496-496-496-496 222.001-496 496zM753.6 216v232h141.801c21.399 0 32.2 25.999 17.001 41.001l-229.801 228.6c-9.4 9.4-24.399 9.4-33.8 0l-230.001-228.6c-15.201-15.201-4.401-41.001 17.001-41.001h141.801v-232c0-13.199 10.801-24 24-24h128c13.197 0 23.997 10.801 23.997 24z" />
<glyph unicode="&#xe911;" glyph-name="arrow-circle-down_solid" horiz-adv-x="1331" d="M1161.6 448c0-273.999-222.001-496-496-496s-496 222.001-496 496 222.001 496 496 496 496-222.001 496-496zM874.401 505.8l-144.801-150.999v365.199c0 26.601-21.399 48-48 48h-32c-26.601 0-48-21.399-48-48v-365.199l-144.801 150.999c-18.601 19.4-49.6 19.799-68.6 0.801l-21.801-22.001c-18.801-18.801-18.801-49.201 0-67.799l265.201-265.4c18.801-18.801 49.201-18.801 67.799 0l265.4 265.4c18.801 18.801 18.801 49.201 0 67.799l-21.801 22.001c-18.995 18.998-49.997 18.598-68.595-0.801z" />
<glyph unicode="&#xe912;" glyph-name="arrow-circle-left_solid" horiz-adv-x="1331" d="M665.6-48c-273.999 0-496 222.001-496 496s222.001 496 496 496 496-222.001 496-496-222.001-496-496-496zM723.4 239.199l-150.999 144.801h365.199c26.601 0 48 21.399 48 48v32c0 26.601-21.399 48-48 48h-365.199l150.999 144.801c19.4 18.601 19.799 49.6 0.801 68.6l-22.001 21.801c-18.801 18.801-49.201 18.801-67.799 0l-265.4-265.203c-18.801-18.801-18.801-49.201 0-67.799l265.4-265.4c18.801-18.801 49.201-18.801 67.799 0l22.001 21.801c19 18.998 18.598 49.999-0.801 68.598z" />
<glyph unicode="&#xe913;" glyph-name="arrow-circle-right_solid" horiz-adv-x="1331" d="M665.6 944c273.999 0 496-222.001 496-496s-222.001-496-496-496-496 222.001-496 496 222.001 496 496 496zM607.8 656.799l150.999-144.799h-365.199c-26.601 0-48-21.399-48-48v-32c0-26.601 21.399-48 48-48h365.199l-150.999-144.801c-19.4-18.601-19.799-49.6-0.801-68.6l22.001-21.801c18.801-18.801 49.201-18.801 67.799 0l265.4 265.201c18.801 18.801 18.801 49.201 0 67.799l-265.398 265.603c-18.801 18.801-49.201 18.801-67.799 0l-22.001-21.801c-19-19.2-18.601-50.199 0.799-68.8z" />
<glyph unicode="&#xe914;" glyph-name="arrow-circle-up_solid" horiz-adv-x="1331" d="M169.6 448c0 273.999 222.001 496 496 496s496-222.001 496-496-222.001-496-496-496-496 222.001-496 496zM456.801 390.2l144.799 150.999v-365.199c0-26.601 21.399-48 48-48h32c26.601 0 48 21.399 48 48v365.199l144.801-150.999c18.601-19.4 49.6-19.799 68.6-0.801l21.801 22.001c18.801 18.801 18.801 49.201 0 67.799l-265.203 265.4c-18.801 18.801-49.201 18.801-67.799 0l-265.6-265.4c-18.801-18.801-18.801-49.201 0-67.799l21.801-22.001c19.2-19 50.199-18.598 68.8 0.801z" />
<glyph unicode="&#xe915;" glyph-name="arrow-down_solid" horiz-adv-x="1331" d="M1043.799 515l44.401-44.401c18.801-18.801 18.801-49.201 0-67.799l-388.6-388.8c-18.801-18.801-49.201-18.801-67.799 0l-388.8 388.8c-18.801 18.801-18.801 49.201 0 67.799l44.401 44.401c19 19 49.999 18.601 68.6-0.801l229.601-241.001v574.802c0 26.601 21.399 48 48 48h64c26.601 0 48-21.399 48-48v-574.799l229.601 241.001c18.596 19.599 49.597 19.999 68.595 0.799v0z" />
<glyph unicode="&#xe916;" glyph-name="arrow-down-top_solid" horiz-adv-x="1331" d="M1013.478 599.409l40.847-40.852c17.3-17.295 17.3-45.266 0-62.38l-357.535-357.719c-17.295-17.298-45.268-17.298-62.38 0l-357.537 357.537c-17.3 17.298-17.3 45.268 0 62.38l40.85 40.852c17.48 17.482 46.006 17.114 63.114-0.737l211.064-221.55v528.85c0 24.476 19.686 44.163 44.16 44.163h58.885c24.476 0 44.163-19.689 44.163-44.163v-528.852l211.249 221.737c17.116 18.033 45.637 18.399 63.119 0.735zM1077.76-6.653c0-26.017-21.089-47.107-47.107-47.107h-730.107c-26.017 0-47.107 21.089-47.107 47.107v56.824c0 26.020 21.089 47.109 47.107 47.109h730.104c26.017 0 47.107-21.089 47.107-47.107v-56.827z" />
<glyph unicode="&#xe917;" glyph-name="arrow-left_solid" horiz-adv-x="1331" d="M732.6 69.801l-44.401-44.401c-18.801-18.801-49.201-18.801-67.799 0l-388.8 388.6c-18.801 18.801-18.801 49.201 0 67.799l388.8 388.8c18.801 18.801 49.201 18.801 67.799 0l44.401-44.401c19-19 18.601-49.999-0.801-68.6l-241.001-229.601h574.802c26.601 0 48-21.399 48-48v-64c0-26.601-21.399-48-48-48h-574.799l241.001-229.601c19.599-18.596 19.999-49.597 0.799-68.595v0z" />
<glyph unicode="&#xe918;" glyph-name="arrow-left-top_solid" horiz-adv-x="1331" d="M817.239 99.487l-40.85-40.847c-17.295-17.3-45.266-17.3-62.38 0l-357.722 357.535c-17.298 17.295-17.298 45.268 0 62.38l357.537 357.537c17.3 17.3 45.271 17.3 62.38 0l40.85-40.85c17.485-17.48 17.116-46.006-0.735-63.114l-221.55-211.064h528.852c24.476 0 44.165-19.686 44.165-44.16v-58.885c0-24.476-19.689-44.163-44.165-44.163h-528.852l221.737-211.249c18.033-17.116 18.399-45.637 0.732-63.119zM314.88 82.947c0-26.017-21.092-47.107-47.107-47.107h-56.827c-26.015 0-47.107 21.089-47.107 47.107v730.107c0 26.015 21.092 47.107 47.107 47.107h56.824c26.017 0 47.109-21.092 47.109-47.107v-730.107z" />
<glyph unicode="&#xe919;" glyph-name="arrow-right_solid" horiz-adv-x="1331" d="M598.6 826.199l44.401 44.401c18.801 18.801 49.201 18.801 67.799 0l388.8-388.6c18.801-18.801 18.801-49.201 0-67.799l-388.8-388.8c-18.801-18.801-49.201-18.801-67.799 0l-44.401 44.401c-19 19-18.601 49.999 0.801 68.6l241.001 229.601h-574.802c-26.601 0-48 21.399-48 48v64c0 26.601 21.399 48 48 48h574.799l-241.001 229.601c-19.599 18.596-19.999 49.595-0.799 68.595z" />
<glyph unicode="&#xe91a;" glyph-name="arrow-right-top_solid" horiz-adv-x="1331" d="M513.958 795.244l40.852 40.847c17.295 17.3 45.266 17.3 62.38 0l357.719-357.535c17.298-17.295 17.298-45.268 0-62.38l-357.535-357.537c-17.298-17.3-45.268-17.3-62.38 0l-40.85 40.85c-17.482 17.48-17.114 46.006 0.735 63.114l221.55 211.064h-528.852c-24.476 0-44.163 19.686-44.163 44.16v58.885c0 24.476 19.686 44.163 44.163 44.163h528.852l-221.737 211.249c-18.033 17.116-18.399 45.635-0.735 63.119zM1167.36 82.947c0-26.017-21.089-47.107-47.107-47.107h-56.824c-26.020 0-47.109 21.089-47.109 47.107v730.107c0 26.015 21.089 47.107 47.107 47.107h56.824c26.020 0 47.109-21.092 47.109-47.107v-730.107z" />
<glyph unicode="&#xe91b;" glyph-name="arrows-alt_solid" horiz-adv-x="1331" d="M858.002 108.449l-158.392-158.392c-18.744-18.744-49.137-18.744-67.884 0l-158.392 158.392c-30.239 30.239-8.822 81.943 33.94 81.94h102.326l-0.003 201.61h-201.608v-102.326c0-42.762-51.702-64.179-81.943-33.94l-158.392 158.39c-18.744 18.747-18.744 49.139 0 67.884l158.392 158.392c30.239 30.239 81.943 8.822 81.943-33.943v-102.456h201.608v201.608h-102.459c-42.765 0-64.179 51.702-33.943 81.943l158.392 158.392c18.747 18.744 49.134 18.744 67.884 0l158.392-158.392c30.239-30.239 8.819-81.943-33.943-81.943h-102.326v-201.608h201.608v102.323c0 42.765 51.702 64.179 81.94 33.943l158.392-158.392c18.747-18.747 18.747-49.139 0-67.881l-158.392-158.392c-30.239-30.239-81.94-8.822-81.94 33.943v102.456h-201.605v-201.608h102.459c42.77 0 64.184-51.702 33.946-81.943v0z" />
<glyph unicode="&#xe91c;" glyph-name="arrows-alt-h_solid" horiz-adv-x="1331" d="M909.484 620.116v-92.116h-487.767v92.116c0 42.765-51.702 64.179-81.94 33.943l-172.119-172.116c-18.744-18.747-18.744-49.137 0-67.884l172.119-172.116c30.239-30.239 81.94-8.822 81.94 33.943v92.114h487.764v-92.116c0-42.765 51.702-64.179 81.943-33.943l172.116 172.116c18.744 18.747 18.744 49.137 0 67.884l-172.116 172.116c-30.239 30.241-81.94 8.824-81.94-33.94v0z" />
<glyph unicode="&#xe91d;" glyph-name="arrows-alt-v-solid" horiz-adv-x="1331" d="M837.716 204.116h-92.116v487.767h92.116c42.765 0 64.179 51.702 33.943 81.94l-172.116 172.119c-18.747 18.744-49.137 18.744-67.884 0l-172.116-172.119c-30.239-30.239-8.822-81.94 33.94-81.94h92.116v-487.764h-92.116c-42.765 0-64.179-51.702-33.943-81.943l172.116-172.116c18.747-18.744 49.137-18.744 67.884 0l172.116 172.116c30.241 30.239 8.824 81.94-33.94 81.94v0z" />
<glyph unicode="&#xe91e;" glyph-name="arrow-up-solid" horiz-adv-x="1331" d="M287.401 381l-44.401 44.401c-18.801 18.801-18.801 49.201 0 67.799l388.6 388.8c18.801 18.801 49.201 18.801 67.799 0l388.6-388.6c18.801-18.801 18.801-49.201 0-67.799l-44.401-44.401c-19-19-49.999-18.601-68.6 0.801l-229.399 240.801v-574.802c0-26.601-21.399-48-48-48h-64c-26.601 0-48 21.399-48 48v574.799l-229.601-241.001c-18.598-19.599-49.597-19.999-68.598-0.799z" />
<glyph unicode="&#xe91f;" glyph-name="arrow-up-top_solid" horiz-adv-x="1331" d="M317.722 296.34l-40.847 40.852c-17.3 17.295-17.3 45.266 0 62.38l357.535 357.719c17.295 17.298 45.268 17.298 62.38 0l357.535-357.537c17.3-17.298 17.3-45.268 0-62.38l-40.85-40.85c-17.48-17.482-46.006-17.114-63.114 0.735l-211.064 221.553v-528.852c0-24.476-19.686-44.163-44.16-44.163h-58.885c-24.476 0-44.163 19.686-44.163 44.163v528.852l-211.249-221.737c-17.114-18.033-45.635-18.401-63.117-0.735zM1077.76 845.827c0-26.015-21.089-47.107-47.107-47.107h-730.107c-26.017 0-47.107 21.092-47.107 47.107v56.827c0 26.015 21.089 47.107 47.107 47.107h730.104c26.020 0 47.109-21.092 47.109-47.107v-56.827z" />
<glyph unicode="&#xe920;" glyph-name="asterisk_solid" horiz-adv-x="1331" d="M1110.021 291.814l-284.421 156.186 284.421 156.186c23.59 12.954 31.923 42.767 18.465 66.074l-38.961 67.482c-13.458 23.306-43.441 30.996-66.455 17.044l-277.471-168.223 6.95 324.408c0.573 26.906-21.076 49.029-47.99 49.029h-77.921c-26.913 0-48.566-22.124-47.987-49.027l6.948-324.408-277.471 168.22c-23.012 13.952-52.997 6.259-66.452-17.047l-38.961-67.482c-13.455-23.306-5.123-53.12 18.465-66.074l284.419-156.183-284.421-156.186c-23.59-12.956-31.923-42.77-18.463-66.076l38.961-67.482c13.455-23.306 43.441-30.996 66.452-17.044l277.471 168.223-6.95-324.408c-0.576-26.903 21.079-49.027 47.99-49.027h77.921c26.913 0 48.566 22.124 47.99 49.027l-6.953 324.408 277.471-168.22c23.012-13.952 52.997-6.259 66.455 17.044l38.961 67.482c13.455 23.306 5.125 53.12-18.463 66.074z" />
<glyph unicode="&#xe921;" glyph-name="at_solid" horiz-adv-x="1331" d="M665.6 944c-274.117 0-496-221.837-496-496 0-274.117 221.837-496 496-496 96.307 0 190.684 28.28 270.815 80.445 24.010 15.629 29.251 48.579 11.105 70.746l-20.355 24.865c-15.34 18.742-42.358 23.334-62.746 10.26-58.98-37.832-128.192-58.317-198.82-58.317-202.916 0-368 165.084-368 368s165.084 368 368 368c200.276 0 368-115.238 368-320 0-77.573-42.186-159.485-116.339-167.386-34.698 0.906-33.82 25.713-26.952 60.047l46.868 242.22c5.729 29.617-16.96 57.119-47.124 57.119h-89.964c-13.752 0-25.313-10.322-26.862-23.987l-0.020-0.184c-29.394 35.802-80.899 43.551-119.944 43.551-149.161 0-275.663-124.467-275.663-302.92 0-130.606 73.569-211.74 192-211.74 53.967 0 114.737 31.276 149.983 76.664 19.041-68.209 81.226-68.206 141.42-68.206 217.815 0 300.598 143.224 300.598 294.82 0 272.696-219.955 448.003-496 448.003zM622.241 335.14c-44.498 0-72.141 31.245-72.141 81.544 0 89.984 61.558 145.457 117.261 145.457 44.585 0 71.201-30.482 71.201-81.541 0-90.122-67.75-145.459-116.321-145.459v0z" />
<glyph unicode="&#xe922;" glyph-name="balance-scale_solid" horiz-adv-x="1331" d="M729.6 64h336c26.509 0 48-21.491 48-48v-32c0-26.509-21.491-48-48-48h-800c-26.509 0-48 21.491-48 48v32c0 26.509 21.491 48 48 48h336v589.353c-47.063 20.567-82.327 63.091-92.795 114.647h-243.205c-26.509 0-48 21.491-48 48v32c0 26.509 21.491 48 48 48h271.997c29.189 38.861 75.658 64 128.003 64s98.813-25.139 128.003-64h271.997c26.509 0 48-21.491 48-48v-32c0-26.509-21.491-48-48-48h-243.205c-10.468-51.556-45.732-94.080-92.795-114.647v-589.353zM1305.562 288c0.003 32.366 2.683 17.452-170.097 363.013-35.292 70.587-136.371 70.715-171.73 0-174.254-348.513-170.097-331.676-170.097-363.013h-0.038c0-88.366 114.614-160 256-160s256 71.634 256 160h-0.038zM1049.6 608l144-288h-288l144 288zM537.562 288c0 32.366 2.683 17.452-170.097 363.013-35.295 70.587-136.374 70.715-171.73 0-174.254-348.513-170.097-331.676-170.097-363.013h-0.038c0-88.366 114.616-160 256-160s256 71.634 256 160h-0.038zM281.6 608l144-288h-288l144 288z" />
<glyph unicode="&#xe923;" glyph-name="ban_solid" horiz-adv-x="1331" d="M665.6 944c-273.933 0-496-222.067-496-496 0-273.935 222.067-496 496-496s496 222.067 496 496-222.065 496-496 496zM925.814 708.216c130.898-130.895 140.001-330.962 41.354-471.273l-512.627 512.625c140.406 98.711 340.452 89.469 471.273-41.352zM405.384 187.786c-130.895 130.895-140.001 330.962-41.354 471.273l512.63-512.627c-140.403-98.711-340.452-89.472-471.276 41.354z" />
<glyph unicode="&#xe924;" glyph-name="barcode_solid" horiz-adv-x="1331" d="M153.6 64v768h36.001v-768h-36.001zM207.314 64.545v767.455h18.286v-767.455h-18.286zM261.601 64.545v767.455h17.713v-767.455h-17.713zM351.314 64.545v767.455h17.713v-767.455h-17.713zM423.314 64.545v767.455h35.428v-767.455h-35.428zM513.027 64.545v767.455h17.715v-767.455h-17.715zM549.028 64.545v767.455h17.715v-767.455h-17.715zM585.027 64.545v767.455h17.715v-767.455h-17.715zM656.458 64.545v767.455h36.001v-767.455h-36.001zM746.173 64.545v767.455h36.001v-767.455h-36.001zM818.171 64.545v767.455h36.001v-767.455h-36.001zM890.173 64.545v767.455h36.001v-767.455h-36.001zM943.885 64.545v767.455h36.001v-767.455h-36.001zM1034.173 64.545v767.455h53.711v-767.455h-53.711zM1105.6 64.545v767.455h18.286v-767.455h-18.286zM1141.601 64v768h35.999v-768h-35.999z" />
<glyph unicode="&#xe925;" glyph-name="bars_solid" horiz-adv-x="1331" d="M249.6 696h832c17.674 0 32 14.326 32 32v80c0 17.674-14.326 32-32 32h-832c-17.674 0-32-14.326-32-32v-80c0-17.674 14.326-32 32-32zM249.6 376h832c17.674 0 32 14.326 32 32v80c0 17.674-14.326 32-32 32h-832c-17.674 0-32-14.326-32-32v-80c0-17.674 14.326-32 32-32zM249.6 56h832c17.674 0 32 14.326 32 32v80c0 17.674-14.326 32-32 32h-832c-17.674 0-32-14.326-32-32v-80c0-17.674 14.326-32 32-32z" />
<glyph unicode="&#xe926;" glyph-name="battery-empty_solid" horiz-adv-x="1331" d="M1113.6 640v-128h64v-128h-64v-128h-960v384h960zM1145.6 768h-1024c-53.020 0-96-42.98-96-96v-448c0-53.020 42.98-96 96-96h1024c53.020 0 96 42.98 96 96v32h16c26.509 0 48 21.491 48 48v288c0 26.509-21.491 48-48 48h-16v32c0 53.020-42.98 96-96 96z" />
<glyph unicode="&#xe927;" glyph-name="battery-full_solid" horiz-adv-x="1331" d="M1113.6 640v-128h64v-128h-64v-128h-960v384h960zM1145.6 768h-1024c-53.020 0-96-42.98-96-96v-448c0-53.020 42.98-96 96-96h1024c53.020 0 96 42.98 96 96v32h16c26.509 0 48 21.491 48 48v288c0 26.509-21.491 48-48 48h-16v32c0 53.020-42.98 96-96 96zM1049.6 576h-832v-256h832v256z" />
<glyph unicode="&#xe928;" glyph-name="battery-half_solid" horiz-adv-x="1331" d="M1113.6 640v-128h64v-128h-64v-128h-960v384h960zM1145.6 768h-1024c-53.020 0-96-42.98-96-96v-448c0-53.020 42.98-96 96-96h1024c53.020 0 96 42.98 96 96v32h16c26.509 0 48 21.491 48 48v288c0 26.509-21.491 48-48 48h-16v32c0 53.020-42.98 96-96 96zM665.6 576h-448v-256h448v256z" />
<glyph unicode="&#xe929;" glyph-name="battery-quarter_solid" horiz-adv-x="1331" d="M1113.6 640v-128h64v-128h-64v-128h-960v384h960zM1145.6 768h-1024c-53.020 0-96-42.98-96-96v-448c0-53.020 42.98-96 96-96h1024c53.020 0 96 42.98 96 96v32h16c26.509 0 48 21.491 48 48v288c0 26.509-21.491 48-48 48h-16v32c0 53.020-42.98 96-96 96zM473.6 576h-256v-256h256v256z" />
<glyph unicode="&#xe92a;" glyph-name="battery-three-quarters_solid" horiz-adv-x="1331" d="M1113.6 640v-128h64v-128h-64v-128h-960v384h960zM1145.6 768h-1024c-53.020 0-96-42.98-96-96v-448c0-53.020 42.98-96 96-96h1024c53.020 0 96 42.98 96 96v32h16c26.509 0 48 21.491 48 48v288c0 26.509-21.491 48-48 48h-16v32c0 53.020-42.98 96-96 96zM857.6 576h-640v-256h640v256z" />
<glyph unicode="&#xe92b;" glyph-name="bell" horiz-adv-x="1331" d="M1068.406 298.122c-33.976 33.569-69.089 68.285-69.089 232.164 0 166.052-121.917 304.148-280.934 329.526 7.324 10.644 11.238 23.265 11.22 36.188 0 35.346-28.654 64-64 64s-64-28.654-64-64c-0.018-12.923 3.894-25.544 11.218-36.191-159.014-25.377-280.932-163.471-280.932-329.523 0-163.866-35.103-198.584-69.087-232.156-96.195-95.012-25.748-234.13 88.635-234.13h186.163c0-70.692 57.308-128 128-128s128 57.308 128 128h186.161c114.378 0 184.829 139.164 88.645 234.122zM665.6 16c-26.468 0-48 21.532-48 48h96c0-26.468-21.532-48-48-48zM979.786 160h-628.385c-33.523 0-50.271 40.781-26.668 64.381 57.17 57.17 103.153 111.447 103.153 305.905 0 131.077 106.637 237.714 237.714 237.714 131.075 0 237.714-106.637 237.714-237.714 0-195.302 46.441-249.149 103.135-305.905 23.706-23.703 6.717-64.381-26.662-64.381z" />
<glyph unicode="&#xe92c;" glyph-name="bell_solid" horiz-adv-x="1331" d="M1085.368 227.884c-44.5 44.498-99.768 99.881-99.768 316.116 0 158.787-115.663 290.537-267.325 315.661 7.391 10.675 11.343 23.355 11.325 36.339 0 35.346-28.654 64-64 64s-64-28.654-64-64c0-13.499 4.191-26.017 11.325-36.339-151.662-25.124-267.325-156.874-267.325-315.661 0-216.236-55.286-271.619-99.786-316.116-60.298-60.298-17.564-163.884 67.884-163.884h223.903c0-70.692 57.308-128 128-128s128 57.308 128 128h223.885c85.279 0 128.302 103.462 67.884 163.884zM665.6 16c8.835 0 16-7.163 16-16s-7.165-16-16-16c-44.111 0-80 35.889-80 80h32c0-26.468 21.532-48 48-48z" />
<glyph unicode="&#xe92d;" glyph-name="bell-slash" horiz-adv-x="1331" d="M351.401 160c-33.523 0-50.271 40.781-26.668 64.381 50.452 50.452 92.188 98.675 101.297 242.959l-93.553 82.547c-0.387-6.528-0.586-13.066-0.591-19.604 0-163.866-35.1-198.584-69.087-232.156-96.192-95.009-25.746-234.127 88.637-234.127h186.163c0-70.692 57.308-128 128-128s128 57.308 128 128h89.554l-108.8 96h-422.953zM665.6 16c-26.468 0-48 21.532-48 48h96c0-26.468-21.532-48-48-48zM1233.334 14.894l-135.862 119.14c26.207 48.238 23.048 112.637-29.066 164.086-33.976 33.569-69.092 68.285-69.092 232.166 0 166.052-121.915 304.148-280.932 329.523 7.322 10.647 11.236 23.268 11.218 36.191 0 35.346-28.654 64-64 64s-64-28.654-64-64c-0.018-12.923 3.894-25.544 11.218-36.191-82.941-13.235-155.781-57.142-206.497-119.683l-243.804 213.798c-10.115 8.87-25.554 7.91-34.481-2.143l-32.323-36.408c-8.927-10.053-7.962-25.398 2.156-34.268l1070.817-939.031c10.115-8.873 25.551-7.913 34.481 2.14l32.325 36.411c8.924 10.053 7.959 25.4-2.158 34.268v0zM665.6 768c131.075 0 237.714-106.637 237.714-237.714 0-195.302 46.441-249.149 103.135-305.905 5.814-5.816 9.144-12.657 10.417-19.666l-538.301 472.061c43.553 55.491 111.186 91.223 187.036 91.223z" />
<glyph unicode="&#xe92e;" glyph-name="bell-slash_solid" horiz-adv-x="1331" d="M245.814 227.884c-60.298-60.298-17.564-163.884 67.884-163.884h223.903c0-70.692 57.308-128 128-128s128 57.308 128 128h65.37l-513.674 453.243c-4.396-194.158-56.878-246.758-99.482-289.359zM617.6 64c0-26.468 21.532-48 48-48 8.835 0 16-7.163 16-16s-7.165-16-16-16c-44.111 0-80 35.889-80 80h32zM1229.391-23.465l-21.524-24.172c-17.83-20.024-48.666-21.934-68.872-4.268l-1032.883 903.117c-20.209 17.669-22.134 48.225-4.306 68.252l21.522 24.172c17.833 20.024 48.668 21.934 68.877 4.265l227.62-199.025c48.033 57.556 115.891 97.992 193.101 110.779-7.391 10.68-11.343 23.36-11.325 36.344 0 35.346 28.654 64 64 64s64-28.654 64-64c0-13.499-4.191-26.017-11.325-36.339 151.662-25.124 267.325-156.874 267.325-315.661 0-216.236 55.268-271.619 99.768-316.116 24.297-24.297 31.846-55.552 26.66-84.242l113.060-98.854c20.206-17.672 22.134-48.228 4.303-68.252v0z" />
<glyph unicode="&#xe92f;" glyph-name="birthday-cake_solid" horiz-adv-x="1331" d="M1113.6 192c-56.041 0-62.52 64-149 64-86.861 0-93.65-64-149.499-64-55.391 0-62.907 64-149.499 64-85.683 0-94.436-64-149-64-56.297 0-62.403 64-149.499 64-87.094 0-93.307-64-149.499-64v160c0 53 43 96 96 96h31.995v288h128v-288h128v288h128v-288h128v288h128v-288h32c53 0 96-43 96-96v-160zM1113.6-64h-896v192c86.712 0 93.535 64 149.499 64 55.903 0 62.508-64 149.499-64 85.686 0 94.433 64 149 64 56.294 0 62.403-64 149.499-64 86.715 0 93.535 64 149.499 64 54.976 0 62.505-64 149-64v-192zM409.6 768c-35.5 0-64 28.5-64 64 0 62.001 64 46.001 64 128 24 0 64-59 64-112s-28.5-80-64-80zM665.6 768c-35.5 0-64 28.5-64 64 0 62.001 64 46.001 64 128 24 0 64-59 64-112s-28.5-80-64-80zM921.6 768c-35.5 0-64 28.5-64 64 0 62.001 64 46.001 64 128 24 0 64-59 64-112s-28.5-80-64-80z" />
<glyph unicode="&#xe930;" glyph-name="bluetooth" horiz-adv-x="1331" d="M802.801 617.8l-85.801-85.801-0.599 172.001 86.4-86.2zM716.401 178.199l86.2 86.2-85.801 85.801-0.399-172.001zM1049.6 441.201c0-411.2-143.8-505.201-370.199-505.201s-397.801 94.001-397.801 505.201 166.799 518.799 393.201 518.799 374.799-107.799 374.799-518.799zM732.6 441.201l158.799 177.201-250.199 268.598v-353.8l-147.599 147.599-54.001-53.801 185.4-185.999-185.4-185.999 53.801-53.801 147.599 147.599 4.6-340.001 254.799 254.999-167.8 177.405z" />
<glyph unicode="&#xe931;" glyph-name="bluetooth-b" horiz-adv-x="1331" d="M738.56 439.954l185.252 206.666-291.963 313.38v-412.659l-172.221 172.221-62.812-62.81 216.12-216.799-216.12-216.801 62.812-62.81 172.221 172.221 5.432-396.564 297.106 297.288-195.827 206.666zM820.28 645.947l-99.955-99.955-0.676 200.589 100.631-100.634zM720.325 333.919l99.955-99.955-100.631-100.634 0.676 200.589z" />
<glyph unicode="&#xe932;" glyph-name="book_solid" horiz-adv-x="1331" d="M1113.6 240v672c0 26.601-21.399 48-48 48h-656c-105.999 0-192-86.001-192-192v-640c0-105.999 86.001-192 192-192h656c26.601 0 48 21.399 48 48v32c0 14.999-6.999 28.6-17.8 37.399-8.399 30.799-8.399 118.6 0 149.399 10.801 8.602 17.8 22.203 17.8 37.202v0zM473.6 691.999c0 6.6 5.399 12.001 12.001 12.001h424c6.6 0 12.001-5.399 12.001-12.001v-40c0-6.6-5.399-12.001-12.001-12.001h-424c-6.6 0-12.001 5.399-12.001 12.001v40zM473.6 563.999c0 6.6 5.399 12.001 12.001 12.001h424c6.6 0 12.001-5.399 12.001-12.001v-40c0-6.6-5.399-12.001-12.001-12.001h-424c-6.6 0-12.001 5.399-12.001 12.001v40zM980.401 64h-570.801c-35.4 0-64 28.6-64 64 0 35.2 28.8 64 64 64h570.801c-3.802-34.199-3.802-93.801 0-128z" />
<glyph unicode="&#xe933;" glyph-name="bookmark" horiz-adv-x="1331" d="M953.6 960h-576c-53.020 0-96-42.98-96-96v-928l384 224 384-224v928c0 53.020-42.98 96-96 96zM953.6 103.14l-288 168-288-168v748.859c0 6.628 5.373 12.001 12.001 12.001h552c6.628 0 12.001-5.366 12.001-11.994v-748.867z" />
<glyph unicode="&#xe934;" glyph-name="bookmark_solid" horiz-adv-x="1331" d="M281.6-64v928c0 53.020 42.98 96 96 96h576c53.020 0 96-42.98 96-96v-928l-384 224-384-224z" />
<glyph unicode="&#xe935;" glyph-name="briefcase_solid" horiz-adv-x="1331" d="M793.6 384h384v-288c0-53.020-42.98-96-96-96h-832c-53.020 0-96 42.98-96 96v288h384v-40c0-13.256 10.747-24 24-24h208c13.256 0 24 10.744 24 24v40zM1177.6 608v-160h-1024v160c0 53.020 42.98 96 96 96h160v96c0 53.020 42.98 96 96 96h320c53.020 0 96-42.98 96-96v-96h160c53.020 0 96-42.98 96-96zM793.6 768h-256v-64h256v64z" />
<glyph unicode="&#xe936;" glyph-name="building" horiz-adv-x="1331" d="M473.6 664v80c0 13.199 10.801 24 24 24h80c13.199 0 24-10.801 24-24v-80c0-13.199-10.801-24-24-24h-80c-13.199 0-24 10.801-24 24zM753.6 640h80c13.199 0 24 10.801 24 24v80c0 13.199-10.801 24-24 24h-80c-13.199 0-24-10.801-24-24v-80c0-13.199 10.801-24 24-24zM497.6 448h80c13.199 0 24 10.801 24 24v80c0 13.199-10.801 24-24 24h-80c-13.199 0-24-10.801-24-24v-80c0-13.199 10.801-24 24-24zM753.6 448h80c13.199 0 24 10.801 24 24v80c0 13.199-10.801 24-24 24h-80c-13.199 0-24-10.801-24-24v-80c0-13.199 10.801-24 24-24zM601.6 280v80c0 13.199-10.801 24-24 24h-80c-13.199 0-24-10.801-24-24v-80c0-13.199 10.801-24 24-24h80c13.199 0 24 10.801 24 24zM753.6 256h80c13.199 0 24 10.801 24 24v80c0 13.199-10.801 24-24 24h-80c-13.199 0-24-10.801-24-24v-80c0-13.199 10.801-24 24-24zM1113.6 8v-72h-896v72c0 13.199 10.801 24 24 24h38.999v880c0 26.601 21.399 48 48 48h673.999c26.601 0 48-21.399 48-48v-880h38.999c13.202 0 24.003-10.801 24.003-24zM376.599 33.999h225.001v134.001c0 13.199 10.801 24 24 24h80c13.199 0 24-10.801 24-24v-134.001h225.001v828.001l-577.001 1.999-1.001-830.001z" />
<glyph unicode="&#xe937;" glyph-name="building_solid" horiz-adv-x="1331" d="M1089.6 0h-40v912c0 26.509-21.491 48-48 48h-672c-26.509 0-48-21.491-48-48v-912h-40c-13.253 0-24-10.744-24-24v-40h896v40c0 13.256-10.744 24-24 24zM473.6 808c0 13.253 10.747 24 24 24h80c13.253 0 24-10.747 24-24v-80c0-13.253-10.747-24-24-24h-80c-13.253 0-24 10.747-24 24v80zM473.6 616c0 13.253 10.747 24 24 24h80c13.253 0 24-10.747 24-24v-80c0-13.253-10.747-24-24-24h-80c-13.253 0-24 10.747-24 24v80zM577.6 320h-80c-13.253 0-24 10.744-24 24v80c0 13.256 10.747 24 24 24h80c13.253 0 24-10.744 24-24v-80c0-13.256-10.747-24-24-24zM729.6 0h-128v168c0 13.256 10.747 24 24 24h80c13.256 0 24-10.744 24-24v-168zM857.6 344c0-13.256-10.744-24-24-24h-80c-13.256 0-24 10.744-24 24v80c0 13.256 10.744 24 24 24h80c13.256 0 24-10.744 24-24v-80zM857.6 536c0-13.253-10.744-24-24-24h-80c-13.256 0-24 10.747-24 24v80c0 13.253 10.744 24 24 24h80c13.256 0 24-10.747 24-24v-80zM857.6 728c0-13.253-10.744-24-24-24h-80c-13.256 0-24 10.747-24 24v80c0 13.253 10.744 24 24 24h80c13.256 0 24-10.747 24-24v-80z" />
<glyph unicode="&#xe938;" glyph-name="bullhorn_solid" horiz-adv-x="1331" d="M1241.6 512c0 41.792-26.721 77.332-64 90.516v229.484c0 70.692-57.308 128-128 128-129.971-112-284.063-256-544-256h-320c-53.020 0-96-42.98-96-96v-192c0-53.020 42.98-96 96-96h86.525c-37.484-129.3 4.959-232.758 37.627-334.881 3.405-10.639 10.406-19.786 19.843-25.761 41.559-26.309 136.709-31.314 187.546-10.301 32.092 13.268 39.921 54.848 15.043 79.076-37.015 36.052-60.27 73.82-39.59 121.715 3.302 7.634 2.516 16.42-2.089 23.347-32.617 49.357-7.16 124.214 57.034 145.503 234.867-14.472 379.244-148.859 502.062-254.697 70.692 0 128 57.308 128 128v229.486c37.281 13.181 64 48.722 64 90.514zM1049.6 232.289c-109.217 89.958-250.066 185.879-448 209.966v139.492c197.934 24.084 338.783 120.005 448 209.966v-559.424z" />
<glyph unicode="&#xe939;" glyph-name="bullseye_solid" horiz-adv-x="1331" d="M665.6 816c203.377 0 368-164.59 368-368 0-203.377-164.59-368-368-368-203.377 0-368 164.59-368 368 0 203.377 164.59 368 368 368zM665.6 944c-273.933 0-496-222.067-496-496 0-273.935 222.067-496 496-496 273.935 0 496 222.065 496 496 0 273.933-222.065 496-496 496zM665.6 576c70.579 0 128-57.421 128-128s-57.421-128-128-128-128 57.421-128 128 57.421 128 128 128zM665.6 704c-141.384 0-256-114.616-256-256 0-141.386 114.616-256 256-256 141.386 0 256 114.614 256 256 0 141.384-114.614 256-256 256z" />
<glyph unicode="&#xe93a;" glyph-name="bus_solid" horiz-adv-x="1331" d="M1177.6 656v-160c0-26.509-21.491-48-48-48h-16v-336c0-26.509-21.491-48-48-48h-16v-80c0-26.509-21.491-48-48-48h-96c-26.509 0-48 21.491-48 48v80h-384v-80c0-26.509-21.491-48-48-48h-96c-26.509 0-48 21.491-48 48v80h-16c-26.509 0-48 21.491-48 48v336h-16c-26.509 0-48 21.491-48 48v160c0 26.509 21.491 48 48 48h16v96c0 88.366 200.576 160 448 160s448-71.634 448-160v-96h16c26.509 0 48-21.491 48-48zM377.6 320c-44.183 0-80-35.817-80-80s35.817-80 80-80 80 35.817 80 80-35.817 80-80 80zM953.6 320c-44.183 0-80-35.817-80-80s35.817-80 80-80 80 35.817 80 80-35.817 80-80 80zM1017.6 432v288c0 26.509-21.491 48-48 48h-608c-26.509 0-48-21.491-48-48v-288c0-26.509 21.491-48 48-48h608c26.509 0 48 21.491 48 48z" />
<glyph unicode="&#xe93b;" glyph-name="calculator_solid" horiz-adv-x="1331" d="M217.6 32v832c0 53.020 42.98 96 96 96h704c53.020 0 96-42.98 96-96v-832c0-53.020-42.98-96-96-96h-704c-53.020 0-96 42.98-96 96zM985.6 600v208c0 13.253-10.744 24-24 24h-592c-13.253 0-24-10.747-24-24v-208c0-13.253 10.747-24 24-24h592c13.256 0 24 10.747 24 24zM473.6 344v80c0 13.256-10.747 24-24 24h-80c-13.253 0-24-10.744-24-24v-80c0-13.256 10.747-24 24-24h80c13.253 0 24 10.744 24 24zM985.6 88v336c0 13.256-10.744 24-24 24h-80c-13.256 0-24-10.744-24-24v-336c0-13.256 10.744-24 24-24h80c13.256 0 24 10.744 24 24zM473.6 88v80c0 13.256-10.747 24-24 24h-80c-13.253 0-24-10.744-24-24v-80c0-13.256 10.747-24 24-24h80c13.253 0 24 10.744 24 24zM729.6 344v80c0 13.256-10.744 24-24 24h-80c-13.253 0-24-10.744-24-24v-80c0-13.256 10.747-24 24-24h80c13.256 0 24 10.744 24 24zM729.6 88v80c0 13.256-10.744 24-24 24h-80c-13.253 0-24-10.744-24-24v-80c0-13.256 10.747-24 24-24h80c13.256 0 24 10.744 24 24z" />
<glyph unicode="&#xe93c;" glyph-name="calendar_solid" horiz-adv-x="1331" d="M241.6 576h848c13.199 0 24-10.801 24-24v-520c0-53-43-96-96-96h-704c-53 0-96 43-96 96v520c0 13.199 10.801 24 24 24zM1113.6 664v72c0 53-43 96-96 96h-96v104c0 13.199-10.801 24-24 24h-80c-13.199 0-24-10.801-24-24v-104h-256v104c0 13.199-10.801 24-24 24h-80c-13.199 0-24-10.801-24-24v-104h-96c-53 0-96-43-96-96v-72c0-13.199 10.801-24 24-24h848c13.199 0 24 10.801 24 24z" />
<glyph unicode="&#xe93d;" glyph-name="calendar-alt_solid" horiz-adv-x="1331" d="M1089.6 640h-848c-13.199 0-24 10.801-24 24v72c0 53 43 96 96 96h96v104c0 13.199 10.801 24 24 24h80c13.199 0 24-10.801 24-24v-104h256v104c0 13.199 10.801 24 24 24h80c13.199 0 24-10.801 24-24v-104h96c53 0 96-43 96-96v-72c0-13.199-10.801-24-24-24zM241.6 576h848c13.199 0 24-10.801 24-24v-520c0-53-43-96-96-96h-704c-53 0-96 43-96 96v520c0 13.199 10.801 24 24 24zM473.6 168c0 13.199-10.801 24-24 24h-80c-13.199 0-24-10.801-24-24v-80c0-13.199 10.801-24 24-24h80c13.199 0 24 10.801 24 24v80zM473.6 424c0 13.199-10.801 24-24 24h-80c-13.199 0-24-10.801-24-24v-80c0-13.199 10.801-24 24-24h80c13.199 0 24 10.801 24 24v80zM729.6 168c0 13.199-10.801 24-24 24h-80c-13.199 0-24-10.801-24-24v-80c0-13.199 10.801-24 24-24h80c13.199 0 24 10.801 24 24v80zM729.6 424c0 13.199-10.801 24-24 24h-80c-13.199 0-24-10.801-24-24v-80c0-13.199 10.801-24 24-24h80c13.199 0 24 10.801 24 24v80zM985.6 168c0 13.199-10.801 24-24 24h-80c-13.199 0-24-10.801-24-24v-80c0-13.199 10.801-24 24-24h80c13.199 0 24 10.801 24 24v80zM985.6 424c0 13.199-10.801 24-24 24h-80c-13.199 0-24-10.801-24-24v-80c0-13.199 10.801-24 24-24h80c13.199 0 24 10.801 24 24v80z" />
<glyph unicode="&#xe93e;" glyph-name="calendar-check_solid" horiz-adv-x="1331" d="M1089.6 640h-848c-13.253 0-24 10.747-24 24v72c0 53.020 42.98 96 96 96h96v104c0 13.253 10.747 24 24 24h80c13.253 0 24-10.747 24-24v-104h256v104c0 13.253 10.744 24 24 24h80c13.256 0 24-10.747 24-24v-104h96c53.020 0 96-42.98 96-96v-72c0-13.253-10.744-24-24-24zM241.6 576h848c13.256 0 24-10.747 24-24v-520c0-53.020-42.98-96-96-96h-704c-53.020 0-96 42.98-96 96v520c0 13.253 10.747 24 24 24zM908.193 384.105l-56.338 56.799c-9.334 9.411-24.53 9.472-33.94 0.136l-212.076-210.368-91.96 92.705c-9.334 9.411-24.532 9.469-33.943 0.136l-56.794-56.34c-9.411-9.334-9.472-24.53-0.136-33.94l165.202-166.538c9.334-9.411 24.53-9.472 33.94-0.138l285.906 283.61c9.411 9.336 9.472 24.53 0.138 33.94v0z" />
<glyph unicode="&#xe93f;" glyph-name="calendar-minus_solid" horiz-adv-x="1331" d="M1089.6 640h-848c-13.199 0-24 10.801-24 24v72c0 53 43 96 96 96h96v104c0 13.199 10.801 24 24 24h80c13.199 0 24-10.801 24-24v-104h256v104c0 13.199 10.801 24 24 24h80c13.199 0 24-10.801 24-24v-104h96c53 0 96-43 96-96v-72c0-13.199-10.801-24-24-24zM241.6 576h848c13.199 0 24-10.801 24-24v-520c0-53-43-96-96-96h-704c-53 0-96 43-96 96v520c0 13.199 10.801 24 24 24zM849.6 192c13.199 0 24 10.801 24 24v80c0 13.199-10.801 24-24 24h-368c-13.199 0-24-10.801-24-24v-80c0-13.199 10.801-24 24-24h368z" />
<glyph unicode="&#xe940;" glyph-name="calendar-plus_solid" horiz-adv-x="1331" d="M1089.6 640h-848c-13.199 0-24 10.801-24 24v72c0 53 43 96 96 96h96v104c0 13.199 10.801 24 24 24h80c13.199 0 24-10.801 24-24v-104h256v104c0 13.199 10.801 24 24 24h80c13.199 0 24-10.801 24-24v-104h96c53 0 96-43 96-96v-72c0-13.199-10.801-24-24-24zM241.6 576h848c13.199 0 24-10.801 24-24v-520c0-53-43-96-96-96h-704c-53 0-96 43-96 96v520c0 13.199 10.801 24 24 24zM873.6 296c0 13.199-10.801 24-24 24h-120v120c0 13.199-10.801 24-24 24h-80c-13.199 0-24-10.801-24-24v-120h-120c-13.199 0-24-10.801-24-24v-80c0-13.199 10.801-24 24-24h120v-120c0-13.199 10.801-24 24-24h80c13.199 0 24 10.801 24 24v120h120c13.199 0 24 10.801 24 24v80z" />
<glyph unicode="&#xe941;" glyph-name="calendar-times_solid" horiz-adv-x="1331" d="M1089.6 640h-848c-13.199 0-24 10.801-24 24v72c0 53 43 96 96 96h96v104c0 13.199 10.801 24 24 24h80c13.199 0 24-10.801 24-24v-104h256v104c0 13.199 10.801 24 24 24h80c13.199 0 24-10.801 24-24v-104h96c53 0 96-43 96-96v-72c0-13.199-10.801-24-24-24zM241.6 576h848c13.199 0 24-10.801 24-24v-520c0-53-43-96-96-96h-704c-53 0-96 43-96 96v520c0 13.199 10.801 24 24 24zM756.201 256l96.2 96.2c9.4 9.4 9.4 24.599 0 33.999l-56.599 56.599c-9.4 9.4-24.599 9.4-33.999 0l-96.202-96.197-96.2 96.2c-9.4 9.4-24.599 9.4-33.999 0l-56.599-56.599c-9.4-9.4-9.4-24.599 0-33.999l96.197-96.202-96.2-96.2c-9.4-9.4-9.4-24.599 0-33.999l56.599-56.599c9.4-9.4 24.599-9.4 33.999 0l96.202 96.197 96.2-96.2c9.4-9.4 24.599-9.4 33.999 0l56.599 56.599c9.4 9.4 9.4 24.599 0 33.999l-96.197 96.202z" />
<glyph unicode="&#xe942;" glyph-name="camera_solid" horiz-adv-x="1331" d="M1177.6 672v-576c0-53-43-96-96-96h-832c-53 0-96 43-96 96v576c0 53 43 96 96 96h176l24.599 65.8c14.001 37.399 49.802 62.2 89.802 62.2h251c40 0 75.799-24.801 89.8-62.2l24.799-65.8h176c53 0 96-43 96-96zM905.6 384c0 132.401-107.599 240-240 240s-240-107.599-240-240 107.599-240 240-240 240 107.599 240 240zM841.6 384c0-97.001-78.999-176-176-176s-176 78.999-176 176 78.999 176 176 176 176-78.999 176-176z" />
<glyph unicode="&#xe943;" glyph-name="caret-down_solid" horiz-adv-x="1331" d="M408.2 576h514.601c35.599 0 53.399-43 28.201-68.201l-257.201-257.4c-15.601-15.601-41.001-15.601-56.599 0l-257.201 257.4c-25.201 25.201-7.401 68.201 28.198 68.201z" />
<glyph unicode="&#xe944;" glyph-name="caret-left_solid" horiz-adv-x="1331" d="M857.6 705.324v-514.65c0-35.635-43.085-53.481-68.285-28.283l-257.321 257.324c-15.621 15.621-15.621 40.95 0 56.568l257.321 257.324c25.201 25.201 68.285 7.352 68.285-28.283z" />
<glyph unicode="&#xe945;" glyph-name="caret-right_solid" horiz-adv-x="1331" d="M473.6 190.674v514.65c0 35.635 43.087 53.484 68.283 28.283l257.324-257.324c15.621-15.621 15.621-40.95 0-56.568l-257.324-257.321c-25.196-25.201-68.283-7.355-68.283 28.28z" />
<glyph unicode="&#xe946;" glyph-name="caret-square-down" horiz-adv-x="1331" d="M467.799 544h395.599c21.399 0 32.2-25.999 17.001-41.001l-197.801-196.6c-9.4-9.4-24.399-9.4-33.8 0l-197.801 196.6c-15.398 15.002-4.598 41.001 16.801 41.001zM1113.6 800v-704c0-53-43-96-96-96h-704c-53 0-96 43-96 96v704c0 53 43 96 96 96h704c53 0 96-43 96-96zM1017.6 107.999v680c0 6.6-5.399 12.001-12.001 12.001h-679.997c-6.6 0-12.001-5.399-12.001-12.001v-680c0-6.6 5.399-12.001 12.001-12.001h680c6.6 0.003 11.999 5.402 11.999 12.001z" />
<glyph unicode="&#xe947;" glyph-name="caret-square-down_solid" horiz-adv-x="1331" d="M1113.6 800v-704c0-53-43-96-96-96h-704c-53 0-96 43-96 96v704c0 53 43 96 96 96h704c53 0 96-43 96-96zM402.601 518.999l246.001-246.001c9.4-9.4 24.599-9.4 33.999 0l246.001 246.001c15.201 15.201 4.401 41.001-17.001 41.001h-492.001c-21.399 0-32.2-25.8-16.998-41.001z" />
<glyph unicode="&#xe948;" glyph-name="caret-square-left" horiz-adv-x="1331" d="M761.6 645.801v-395.599c0-21.399-25.999-32.2-41.001-17.001l-196.6 197.801c-9.4 9.4-9.4 24.399 0 33.8l196.6 197.801c15.002 15.398 41.001 4.598 41.001-16.801v0zM1113.6 800v-704c0-53-43-96-96-96h-704c-53 0-96 43-96 96v704c0 53 43 96 96 96h704c53 0 96-43 96-96zM1017.6 107.999v680c0 6.6-5.399 12.001-12.001 12.001h-679.997c-6.6 0-12.001-5.399-12.001-12.001v-680c0-6.6 5.399-12.001 12.001-12.001h680c6.6 0.003 11.999 5.402 11.999 12.001z" />
<glyph unicode="&#xe949;" glyph-name="caret-square-left_solid" horiz-adv-x="1331" d="M1017.6 0h-704c-53.020 0-96 42.98-96 96v704c0 53.020 42.98 96 96 96h704c53.020 0 96-42.98 96-96v-704c0-53.020-42.98-96-96-96zM736.63 711.030l-246.060-246.060c-9.372-9.372-9.372-24.568 0-33.943l246.057-246.057c15.119-15.119 40.97-4.413 40.97 16.97v492.116c0.003 21.384-25.851 32.090-40.968 16.973z" />
<glyph unicode="&#xe94a;" glyph-name="caret-square-right" horiz-adv-x="1331" d="M569.6 250.199v395.602c0 21.399 25.999 32.2 41.001 17.001l196.6-197.801c9.4-9.4 9.4-24.399 0-33.8l-196.6-197.801c-15.002-15.401-41.001-4.6-41.001 16.799v0zM1113.6 800v-704c0-53-43-96-96-96h-704c-53 0-96 43-96 96v704c0 53 43 96 96 96h704c53 0 96-43 96-96zM1017.6 107.999v680c0 6.6-5.399 12.001-12.001 12.001h-679.997c-6.6 0-12.001-5.399-12.001-12.001v-680c0-6.6 5.399-12.001 12.001-12.001h680c6.6 0.003 11.999 5.402 11.999 12.001z" />
<glyph unicode="&#xe94b;" glyph-name="caret-square-right_solid" horiz-adv-x="1331" d="M313.6 896h704c53.020 0 96-42.98 96-96v-704c0-53.020-42.98-96-96-96h-704c-53.020 0-96 42.98-96 96v704c0 53.020 42.98 96 96 96zM594.57 184.97l246.057 246.057c9.372 9.372 9.372 24.568 0 33.943l-246.057 246.060c-15.119 15.119-40.97 4.413-40.97-16.97v-492.116c0-21.384 25.853-32.090 40.97-16.973v0z" />
<glyph unicode="&#xe94c;" glyph-name="caret-square-up" horiz-adv-x="1331" d="M863.401 352h-395.602c-21.399 0-32.2 25.999-17.001 41.001l197.801 196.6c9.4 9.4 24.399 9.4 33.8 0l197.801-196.6c15.401-15.002 4.6-41.001-16.799-41.001zM1113.6 800v-704c0-53-43-96-96-96h-704c-53 0-96 43-96 96v704c0 53 43 96 96 96h704c53 0 96-43 96-96zM1017.6 107.999v680c0 6.6-5.399 12.001-12.001 12.001h-679.997c-6.6 0-12.001-5.399-12.001-12.001v-680c0-6.6 5.399-12.001 12.001-12.001h680c6.6 0.003 11.999 5.402 11.999 12.001z" />
<glyph unicode="&#xe94d;" glyph-name="caret-square-up_solid" horiz-adv-x="1331" d="M217.6 96v704c0 53.020 42.98 96 96 96h704c53.020 0 96-42.98 96-96v-704c0-53.020-42.98-96-96-96h-704c-53.020 0-96 42.98-96 96zM928.63 376.97l-246.060 246.060c-9.372 9.372-24.568 9.372-33.943 0l-246.057-246.060c-15.119-15.119-4.413-40.97 16.97-40.97h492.116c21.384 0 32.090 25.853 16.973 40.97z" />
<glyph unicode="&#xe94e;" glyph-name="caret-up_solid" horiz-adv-x="1331" d="M922.926 256h-514.65c-35.635 0-53.484 43.085-28.283 68.285l257.324 257.321c15.621 15.621 40.95 15.621 56.568 0l257.324-257.324c25.198-25.198 7.352-68.283-28.283-68.283v0z" />
<glyph unicode="&#xe94f;" glyph-name="cc-amazon-pay" horiz-adv-x="1331" d="M339 556.401c0.2 23.601 0 46.999 0 70.6v70.6c0 2.601 0.801 4.001 2.801 5.399 22.999 16 48.2 24.2 76.401 22.2 25.001-1.8 45.399-14.001 56.2-43.4 6.6-17.8 8.2-36.401 8.2-55.401 0-17.4-1.4-34.601-6.799-51.2-11.4-35.599-37.399-49.4-71.401-47.8-23.401 1.001-43.799 9.999-62.799 23.401-1.802 1.6-2.801 3.2-2.601 5.601v0zM648.801 527.199c9.201-3.599 18.601-4.001 28.201-3 23.201 2.401 43.799 11.4 62.6 25.001 1.8 1.201 2.601 2.601 2.601 5-0.2 7.8 0 15.8 0 23.601 0 8-0.2 16 0 24 0 2.801-0.801 4.001-3.599 4.401-14.001 1.8-27.799 4.401-41.8 5.801-14.001 1.201-28.001 0.599-41.6-3.799-13.399-4.401-23.401-12.401-27.4-26.199-3.2-10.801-3.2-21.601 0.2-32.399 3.197-11.003 10.396-18.404 20.797-22.405zM1241.6 800v-704c0-53-43-96-96-96h-960c-53 0-96 43-96 96v704c0 53 43 96 96 96h960c53 0 96-43 96-96zM826.601 752.2c0.801-3.4 1.8-6.799 3.2-10.199 33.001-81.201 65.8-162.601 99-243.799 2.801-6.999 3.4-12.8 0.399-19.799-5.601-12.401-9.8-25.201-15.601-37.399-5.199-11-13.399-19-25.4-22.4-8.399-2.199-17.001-2.601-25.8-1.8-4.201 0.399-8.399 1.4-12.6 1.6-5.601 0.399-8.399-2.199-8.599-8-0.2-5.601-0.2-11.2 0-16.599 0.2-9.201 3.2-13.399 12.401-14.999 9.4-1.6 18.801-3.2 28.401-3.4 28.6-0.599 51.4 10.801 66.199 35.799 5.801 9.8 11.2 20.201 15.401 30.799 39.601 100.201 78.999 200.599 118.4 301 1.201 3 2.199 6.001 2.601 9.201 0.801 4.8-1.4 7.201-6.2 7.401-11.2 0.2-22.2 0-33.4 0-6.2 0-10.601-2.801-12.8-8.599-0.801-2.199-1.8-4.6-2.601-6.799l-58.199-167.401c-4.201-12.201-8.399-24.2-13-37.199-0.801 1.8-1.201 2.801-1.6 3.799-21.601 59.799-43.2 119.8-64.801 179.599-3.4 9.4-6.999 19-10.601 28.401-1.8 5-5.399 8-10.801 8-12.8 0.2-25.6 0.399-38.4 0.2-4.401-0.005-6.6-3.205-5.599-7.406v0zM574.4 547.999c3.4-23.401 15.201-41.6 36.001-53.199 19.799-11 41.4-12.401 63.401-9.201 25.4 3.799 47.8 14.6 67.599 30.999 0.801 0.599 1.6 1.201 2.801 1.999 1.001-6.4 1.8-12.401 3-18.401 1.001-5.199 4.201-8.599 9.001-8.801 9.201-0.2 18.199-0.2 27.4 0 4.6 0.2 7.601 3.2 8 7.8 0.2 1.6 0.2 3.2 0.2 4.6v177.6c0 7.201-0.399 14.4-1.4 21.601-3.2 21.601-12.401 39.401-31.8 50.801-11.2 6.6-23.601 9.999-36.401 11.799-6.001 0.801-12.001 1.4-18.199 2.199h-20.001c-1.6-0.2-3.2-0.599-5-0.599-16.399-0.801-32.599-2.801-48.399-6.999-10.199-2.601-20.001-6.4-30.001-9.8-6.001-1.999-9.001-6.4-8.801-13 0.2-5.601-0.2-11.2 0-16.599 0.2-8.2 3.599-10.401 11.4-8.2 13 3.4 26.199 6.999 39.401 9.6 20.6 3.799 41.4 5.399 62.2 2.401 10.801-1.6 21-4.8 28.201-14.001 6.2-8 8.399-17.6 8.801-27.4 0.599-13.801 0.399-27.799 0.599-41.6 0-0.801-0.2-1.4-0.399-2.401-0.801 0-1.6 0-2.199 0.2-17.6 4.201-35.4 7.201-53.601 8.2-19 1.001-37.801-0.2-55.8-6.4-21.601-7.601-38.999-20.6-49.201-41.6-8.202-16.599-9.201-33.999-6.802-51.599zM286.999 746.199v-350.6c0-1.6 0-3.4 0.2-5 0.399-5 3.4-8.2 8.2-8.399 11.799-0.2 23.601-0.2 35.4 0 5 0 8 3.4 8.2 8.2 0.2 1.6 0.2 3.4 0.2 5v121.4c1.8-1.4 2.801-2.401 3.799-3.2 30.001-25.001 64.399-33.201 102.2-25.8 34.199 6.799 57.8 27.799 73.4 58.401 11.599 23.201 16.599 48.2 17.4 73.999 1.001 28.6-1.999 56.801-13.601 83.4-14.2 32.801-37.801 54.6-73.4 61.801-5.399 1.201-11 1.6-16.399 2.401h-14.001c-2.401-0.399-4.8-0.599-7.201-1.001-23.401-2.801-44.6-11.599-63.601-25.4-4.001-2.801-7.8-6.001-11.799-9.001-0.2 1.001-0.599 1.6-0.801 2.401-0.801 4.6-1.4 9.201-2.199 13.801-1.201 7.8-5 11-12.8 11.2h-19.395c-11.799 0.197-13.801-2.002-13.801-13.604v0zM1076.8 281.999c-5.399 1.4-10.199 0-15.201-1.999-87.8-36.8-179-60.401-273.6-71.601-29-3.4-58.199-5.601-87.401-6.4-53.199-1.4-106.401 1.6-159.201 8.599-35.599 4.8-70.999 11.4-105.999 19.799-73.999 17.8-145.4 43.4-213.399 77.601-17.6 8.801-34.801 18.601-52.201 28.001-7.601 4.201-12.401 3-16.399-4.201v-3.4c2.401-3.2 4.401-6.799 7.401-9.6 72-64.399 153.201-113.001 244.001-145.8 43.799-15.8 88.801-27.4 134.6-35 28.001-4.6 56-7.601 84.401-9.001 6.001-0.2 12.001-0.399 17.999-0.801 1.4 0 2.801-0.399 4.201-0.599h35.4c1.4 0.2 2.801 0.599 4.201 0.599 29.801 0.801 59.599 3.599 89.201 8 42.801 6.4 84.8 16.2 125.801 29.399 59.2 19.2 115.4 44.8 166.799 80.2 5.601 3.799 11.4 7.601 16 12.401 8.599 8.804 4.598 20.803-6.602 23.803v0zM1177.6 337.4c-1.6 8.399-8 11.599-15.201 14.001-11.4 3.799-23.201 5.601-35.2 6.6-22.001 1.8-44.001 0.801-65.6-3.2-24-4.401-46.799-12.201-67-26.199-2.401-1.6-4.8-3.599-6.2-6.001-1.201-1.8-1.4-4.6-1.001-6.799 0.599-2.601 3.4-3.2 6.001-3 1.201 0 2.401 0 3.599 0.2l38.999 4.201c19.2 1.8 38.4 3 57.6 1.6 8.2-0.599 16.2-2.401 24-4.401 8.599-2.199 12.401-8.801 12.8-17.4 0.599-13.399-2.401-26.199-5.801-38.999-6.999-25.8-16.599-50.801-26.601-75.599-0.599-1.6-1.4-3.4-1.6-5-0.801-5 1.999-8 6.799-6.999 2.801 0.599 6.001 2.199 8 4.201 7.401 7.201 14.999 14.4 21.199 22.4 21.399 27.599 33.999 59.2 41.4 93.199 1.4 6.001 2.401 12.201 3.4 18.199 0.407 9.398 0.407 19.197 0.407 28.997v0z" />
<glyph unicode="&#xe950;" glyph-name="cc-amex" horiz-adv-x="1331" d="M1241.6 449.201c-75.799 0.399-88.399 1.8-109-9.999v9.999c-90.601 0-107 3.4-129.8-10.401v10.401h-156.401v-10.199c-22.799 13-42.801 10.199-151.401 10.199v-11.2c-12.6 7.401-29 11.2-48.599 11.2h-116.001c-6.999-7.601-25.001-27.4-31.401-34.401-25.4 28.201-21 23.201-30.999 34.401h-166.2v-184.599h164.001c6.6 6.999 25.8 27.799 32.2 34.801 25.4-28.6 20.6-23.401 30.799-34.801h97.8c0 29.399 0.2 16.599 0.2 46.001 22.999-0.399 48.599 0.399 68.6 12.401 0-27.799-0.2-34.199-0.2-58.401h79.201c0 37 0.2 14.799 0.2 50.601 12.401 0 15.401 0 18.801-0.2 0.2-2.601 0 0 0-50.401 305.6 0 291.799-2.199 313.4 9.001v-9.001c69.601 0 109.601-4.401 134.999 12.201v-180.803c0-53-43-96-96-96h-960.2c-53 0-96 43-96 96v407.401h53.199c8.399 20.201 4.401 10.601 12.8 30.6h38.4c8.399-20.001 4.401-10.401 12.8-30.6h105.8v22.799c4.401-9.999 2.199-5 10.199-22.799h59c4.8 11 5.199 11.599 10.199 22.799v-22.799h270.999v50.199c12.8 0 16 0.2 19.599-0.399 0 0-0.399-21.801 0.2-49.6h133v17.8c14.799-11.799 34.801-17.8 59.4-17.8h53.601c8.399 20.201 4.401 10.601 12.8 30.6h38.001c13-30.001 0.399-1.001 13.199-30.6h105.6v43.799c23.601-39.401 15.601-25.8 26.401-43.799h83.2v184h-79.8v-36.8c-24.399 40.399-12.6 20.8-22.4 36.8h-86.6v-41.201c-12.401 29.199-9.201 21.601-17.6 41.201h-64.801c-0.801 0-4.6-0.399-4.6 0.599h-55.201c-25.6 0-46.2-6.4-61.399-18.601v18.601h-79.8v-10.601c-21.601 12.201-41.4 10.199-128.801 10.601-0.2 0-23.201 0.2-23.201 0h-206.001c-5-12.201-13.601-32.801-25.201-60.001-5.601 12.001-22.001 47.601-27.799 60.001h-91.991v-42.199c-14.799 34.801-9.4 22.001-17.999 42.199h-79.401c-6.799-15.8-27.4-64-46.2-107.799v219.599c0 53 43 96 96 96h960c53 0 96-43 96-96v-350.799h0.399zM868.401 610.399c-0.599-0.399-2.801-4.401-2.801-15.201 0-12.001 1.8-15.401 2.199-15.8 0.399-0.2 2.199-1.001 6.799-1.001l14.6 33.8c-2.199 0-4.201 0.2-6.2 0.2-11.197 0.005-13.998-1.395-14.597-1.997zM828.6 348.6c18.401-6.6 22.001-19 22.001-36.8l-0.2-27.599h-33.201l0.2 22.999c0 23.601-7.601 27.599-29.601 27.599h-35.2l-0.2-50.601h-33.201l0.2 138.601h78.799c25.999 0 54.2-4.6 54.2-37.399-0.197-15.201-8.397-30.6-23.798-36.8zM816 379.4c0 12.8-11.2 14.799-21.399 14.799h-41.999v-31.201h41.4c11.197 0.003 21.998 2.601 21.998 16.402zM1179.4 393.6h60.201v29.199h-65.8c-25.6 0-47.601-13.199-47.601-41.4 0-65.999 85.399-25.6 85.399-54.799 0-10.199-8.599-12.8-16.801-12.8h-64l-0.2-29.601h64c16.801 0 35.2 3.599 45 17.8v51.599c-21 27.599-78.6 2.601-78.6 27 0.003 11.602 9.201 13.002 18.401 13.002zM981 394.199v28.6h-110.4l-0.2-138.598h110.4l0.2 28.6-77.199 0.599v27.599h75.799v28.201h-75.599v25.001l77-0.003zM1065.4 313.999h-64.399l-0.2-29.601h64.399c29.601 0 52.401 11.2 52.401 44.001 0 66.401-85.801 22.4-85.801 52.6 0 11.2 9.8 12.8 18.401 12.8h60.8v29.199h-66.401c-25.6 0-46.999-13.199-46.999-41.4 0-65.999 85.399-25.001 85.399-54.799-0.2-10.801-9.4-12.8-17.6-12.8zM909.199 631.401c-34.801 0.599-66.401 8.2-66.401-39.401 0-23.601 5.601-39.8 32.2-39.8h14.799l46.999 109h49.6l55.8-130.801v130.801h50.601l58.199-96.2v96.2h33.8v-137.999h-47.201l-62.395 103.8v-103.8h-67.4l-13.199 30.6h-68.6l-12.8-30.6h-38.4c-45.601 0-65.999 23.601-65.999 68.001 0 46.6 21 70.6 68.001 70.6h32.2v-30.4h0.197zM937.8 582.4h45.601l-22.4 55.201-23.201-55.201zM792.599 661.599h-33.8v-138.601h33.8v138.601zM716.401 587c19-6.6 22.001-18.401 22.001-36.8v-27h-33.201c-0.599 29.601 7.201 50.199-29.601 50.199h-36.001v-50.199h-32.801v138.601l78.2-0.599c26.601 0 54.799-4.001 54.799-36.8 0.205-16.003-8.596-31.401-23.396-37.402zM702.999 617.6c0 12.8-11.2 14.799-21.399 14.799h-41.999v-30.6h41.4c11.4 0 21.998 2.601 21.998 15.8zM584 632.399v29.199h-110.999v-138.601h110.999v28.6h-77.801v27.602h75.599v28.201h-75.599v25.001h77.801zM414.799 523v108.401l-48-108.401h-29.199l-48 108.401v-108.401h-67.599l-12.8 30.6h-69l-12.8-30.6h-35.802l59.4 138.601h49.001l56.2-131.4v131.4h54.2l43.4-94.001 39.401 94.001h55.201v-138.601h-33.603zM197.399 582.4l-22.999 55.201-22.4-55.201h45.399zM703.401 377.4c0-55.8-60.8-46.6-98.601-46.6l-0.2-46.6h-64.399l-40.801 46.001-42.601-46.001h-130.801l0.2 138.601h133l41.001-45.601 41.999 45.601h105.4c31.201-0.003 55.803-10.803 55.803-45.402zM478.001 353.8l-35.799 40.399h-83.4v-25.001h72.599v-28.201h-72.599v-27.599h81.201l37.998 40.402zM571.599 408l-50.601-54.799 50.601-56.2v110.999zM668.201 377.4c0 12.201-9.201 16.801-20.401 16.801h-43v-35.2h42.401c11.799-0.003 21 5.599 21 18.399z" />
<glyph unicode="&#xe951;" glyph-name="cc-apple-pay" horiz-adv-x="1331" d="M694.001 523.2c0-34.401-21-54.2-57.999-54.2h-48.599v108.401h48.801c36.797 0 57.797-19.599 57.797-54.2zM789 398.001c0-16.599 14.4-27.4 37-27.4 28.8 0 50.401 18.199 50.401 43.799v15.401l-46.999-3c-26.601-1.8-40.402-11.602-40.402-28.8zM1241.6 801.999v-704c0-53-43-96-96-96h-960c-53 0-96 43-96 96v704c0 53 43 96 96 96h960c53 0 96-43 96-96zM345.201 565.599c16.801-1.4 33.6 8.399 44.201 20.8 10.401 12.8 17.201 30.001 15.401 47.401-14.799-0.599-33.201-9.8-43.799-22.6-9.603-11-17.802-28.8-15.803-45.601zM466.401 416.599c-0.399 0.399-39.201 15.201-39.601 60.001-0.399 37.399 30.6 55.401 32 56.399-17.6 25.999-44.8 28.8-54.2 29.399-24.399 1.4-45.199-13.801-56.801-13.801-11.799 0-29.399 13.199-48.599 12.8-25.001-0.399-48.399-14.6-61-37.199-26.199-45.199-6.799-112 18.601-148.8 12.401-18.199 27.4-38.2 46.999-37.399 18.601 0.801 25.999 12.001 48.399 12.001 22.6 0 29-12.001 48.599-11.799 20.401 0.399 33.001 18.199 45.601 36.401 13.801 20.797 19.599 40.799 20.001 41.997zM737.201 523.4c0 53.199-37 89.6-89.8 89.6h-102.4v-272.801h42.401v93.199h58.601c53.596 0.003 91.197 36.803 91.197 90.002zM917.199 475.999c0 39.401-31.601 64.801-80 64.801-45 0-78.2-25.8-79.401-61h38.2c3.2 16.801 18.801 27.799 40 27.799 25.999 0 40.399-12.001 40.399-34.401v-14.999l-52.8-3.2c-49.201-3-75.799-23.201-75.799-58.199 0-35.4 27.4-58.801 66.801-58.801 26.601 0 51.2 13.399 62.4 34.801h0.801v-32.801h39.201v136h0.197zM1121.6 538.199h-43l-49.8-161.201h-0.801l-49.8 161.201h-44.6l71.8-198.6-3.799-12.001c-6.4-20.401-17.001-28.401-35.799-28.401-3.4 0-9.8 0.399-12.401 0.599v-32.801c2.401-0.801 13-1.001 16.2-1.001 41.4 0 60.8 15.8 77.801 63.601l74.199 208.604z" />
<glyph unicode="&#xe952;" glyph-name="cc-diners-club" horiz-adv-x="1331" d="M569.001 800.2c-193.8 0-351.601-157.199-351.601-351.601 0-193.8 157.801-351.601 351.601-351.601 194.401 0 351.601 157.801 351.601 351.601-0.003 194.401-157.202 351.601-351.601 351.601zM489.201 241.001c-83.4 31.8-142.799 112.801-142.799 207.601s59.4 175.8 142.799 208.2v-415.8zM648.801 240.399v416.399c83.4-32.399 142.799-113.4 142.799-208.2s-59.4-175.8-142.799-208.2zM1145.6 896h-960c-53 0-96-43-96-96v-704c0-53 43-96 96-96h960c53 0 96 43 96 96v704c0 53-43 96-96 96zM749 64h-180.6c-212.401 0-387.599 171-387.599 380.401 0 229.199 175.201 387.599 387.599 387.599h180.6c209.999 0 401.4-158.4 401.4-387.599 0-209.4-191.401-380.401-401.4-380.401z" />
<glyph unicode="&#xe953;" glyph-name="cc-discover" horiz-adv-x="1331" d="M255.601 535.8c0-15.8-6.4-30.999-17.8-41.4-9.8-8.801-23.201-12.8-43.799-12.8h-8.402v108.401h8.399c20.6 0 33.4-3.4 43.799-13.199 11.402-10.002 17.802-25.201 17.802-41.001zM1099.2 592h-9.8v-49.8h9.4c20.6 0 31.601 8.801 31.601 25.6 0 15.8-11 24.2-31.201 24.2zM1241.6 800v-704c0-53-43-96-96-96h-960c-53 0-96 43-96 96v704c0 53 43 96 96 96h960c53 0 96-43 96-96zM945.6 454.001h90.601v27.599h-58.601v44.401h56.599v27.599h-56.599v36.401h58.601v28.001h-90.601v-164.001zM773.199 617.999l70.001-168.399h17.201l70.999 168.399h-35l-44.401-110.4-43.799 110.4h-35zM607.201 534.799c0-49.201 39.8-89.201 89.201-89.201 49.201 0 89.201 39.8 89.201 89.201 0 49.201-39.8 89.201-89.201 89.201-49.201 0-89.201-39.8-89.201-89.201zM471.201 535.8c0-65.001 67.2-105.001 126.6-76.401v38.001c-38.6-38.6-93.601-11.599-93.601 38.4 0 47.401 53.399 78.2 93.601 38.001v38.001c-60.401 29.998-126.6-13.601-126.6-76.001zM403.4 479.199c-15.201 0-27.599 7.401-35 21.601l-20.6-19.799c35.599-52.201 113.201-36.401 113.201 22.6 0 26.199-10.801 38.001-47.201 51.2-19.2 6.799-24.599 11.799-24.599 20.6 0 17.4 29 28.201 49.8 5l16.801 21.601c-38.2 34.199-99.4 17.8-99.4-28.6 0-22.6 10.401-34.401 40.399-45.399 51.4-18.202 29.399-48.804 6.6-48.804v0zM288.599 535.8c0 48.2-36.001 82.199-88.2 82.199h-46.799v-164.001h46.799c61.801 0.003 88.2 44.803 88.2 81.802zM335.401 617.999h-32v-164.001h32v164.001zM1177.6 384c-66.601-41.6-452.8-248.801-832-320h801.999c16.399 0 30.001 13.601 30.001 30.001v289.999zM1177.6 454.001l-51.799 69c24.2 5 37.399 21.199 37.399 46.4 0 57.001-60.6 48.801-105.8 48.801v-164.001h32v65.6h4.401l44.401-65.6h39.398v-0.2z" />
<glyph unicode="&#xe954;" glyph-name="cc-jcb" horiz-adv-x="1331" d="M952.599 471.401v64.599c82.401 0 77-0.399 77-0.399 14.6-2.601 26.601-14.6 26.601-32 0-17.6-12.001-29-26.601-31.601-2.399-0.801-6.6-0.599-77-0.599zM1038.2 430.999c-5.601 1.4-6.6 1.001-85.601 1.001v-70.001c79.201 0 80-0.399 85.601 1.001 14.999 3 27 16 27 33.999 0 17.4-12.001 30.999-27 33.999zM1241.6 800v-704c0-53-43-96-96-96h-960c-53 0-96 43-96 96v704c0 53 43 96 96 96h960c53 0 96-43 96-96zM453.601 575.401h-113.999c0-134.2 21.399-219.4-71.601-219.4-38.999 0-77.601 11.4-114.401 29.601v-56c60.001-16.599 136-16.599 136-16.599 195.799-0.003 164.001 95.396 164.001 262.397zM810.601 566.4c-126.799 32-329.999 29.801-329.999-118.6 0-154.199 216.399-147.2 329.999-118.4v56.599c-95.201-49.4-214.999-44.001-214.999 62.001s119.601 111.201 214.999 62.4v56zM1177.6 387c0 37-33.001 61-76.001 64v1.6c38.999 5.399 60.6 30.999 60.6 60.401 0 38.001-31.401 60.001-73.999 62.001 0 0 12.6 0.599-240.599 0.599v-254.999h245.399c48.602-0.202 84.6 25.797 84.6 66.399z" />
<glyph unicode="&#xe955;" glyph-name="cc-mastercard" horiz-adv-x="1331" d="M1055.401 139.4c0-13.601-9.201-23.401-22.4-23.401-13.601 0-22.4 10.401-22.4 23.401s8.801 23.401 22.4 23.401c13.199 0 22.4-10.401 22.4-23.401zM433.8 162.801c-14.2 0-22.4-10.401-22.4-23.401s8.2-23.401 22.4-23.401c13 0 21.801 9.8 21.801 23.401-0.2 13-8.801 23.401-21.801 23.401zM668.8 163.4c-10.801 0-17.4-6.999-19-17.4h38.2c-1.8 11.4-8.799 17.4-19.2 17.4zM884.401 162.801c-13.601 0-21.801-10.401-21.801-23.401s8.2-23.401 21.801-23.401 22.4 9.8 22.4 23.401c0 13-8.801 23.401-22.4 23.401zM1096.2 110.6c0-0.599 0.599-1.001 0.599-2.199 0-0.599-0.599-1.001-0.599-2.199-0.599-0.599-0.599-1.001-1.001-1.6-0.599-0.599-1.001-1.001-2.199-1.001-0.599-0.599-1.001-0.599-2.199-0.599-0.599 0-1.001 0-2.199 0.599-0.599 0-1.001 0.599-1.6 1.001-0.599 0.599-1.001 1.001-1.001 1.6-0.599 1.001-0.599 1.6-0.599 2.199 0 1.001 0 1.6 0.599 2.199 0 1.001 0.599 1.6 1.001 2.199 0.599 0.599 1.001 0.599 1.6 1.001 1.001 0.599 1.6 0.599 2.199 0.599 1.001 0 1.6 0 2.199-0.599 1.001-0.599 1.6-0.599 2.199-1.001s0.402-1.198 1.001-2.199zM1091.799 107.799c1.001 0 1.001 0.599 1.6 0.599 0.599 0.599 0.599 1.001 0.599 1.6s0 1.001-0.599 1.6c-0.599 0-1.001 0.599-2.199 0.599h-3.2v-6.999h1.6v2.801h0.599l2.199-2.801h1.6l-2.199 2.601zM1241.6 798.001v-704c0-53-43-96-96-96h-960c-53 0-96 43-96 96v704c0 53 43 96 96 96h960c53 0 96-43 96-96zM217.6 518.799c0-153.001 124.201-277 277-277 54.4 0 107.799 16.399 153.001 46.2-145.8 118.6-144.801 342.4 0 461-45.199 30.001-98.601 46.2-153.001 46.2-152.799 0.2-277-124.001-277-276.401zM665.6 301.199c141 110.001 140.401 324.401 0 435-140.401-110.6-141-325.199 0-435zM381 148.6c0 17.4-11.4 28.8-29.399 29.399-9.201 0-19-2.801-25.6-13-4.8 8.2-13 13-24.399 13-7.601 0-15.201-2.801-21.199-10.801v8.801h-16.399v-73.4h16.399c0 37.801-5 60.401 17.999 60.401 20.401 0 16.399-20.401 16.399-60.401h15.8c0 36.6-5 60.401 17.999 60.401 20.401 0 16.399-20.001 16.399-60.401h16.399v46.001h-0.399zM470.799 176h-15.8v-8.801c-5.399 6.6-13 10.801-23.401 10.801-20.6 0-36.401-16.399-36.401-38.6 0-22.4 15.8-38.6 36.401-38.6 10.401 0 17.999 3.799 23.401 10.801v-9.201h15.8v73.6zM551.8 124.8c0 30.001-45.801 16.399-45.801 30.4 0 11.4 23.8 9.6 37 2.199l6.6 13c-18.801 12.201-60.401 12.001-60.401-16.399 0-28.6 45.801-16.599 45.801-30.001 0-12.6-27-11.599-41.4-1.6l-6.999-12.6c22.4-15.199 65.201-11.999 65.201 15.002v0zM622.6 106.199l-4.401 13.601c-7.601-4.201-24.399-8.801-24.399 8.2v33.201h26.199v14.799h-26.199v22.4h-16.399v-22.4h-15.201v-14.6h15.201v-33.4c0-35.2 34.601-28.8 45.199-21.801v0zM649.201 133h54.999c0 32.399-14.799 45.199-34.801 45.199-21.199 0-36.401-15.8-36.401-38.6 0-41.001 45.199-47.8 67.599-28.401l-7.601 12.001c-15.598-12.8-39.196-11.599-43.796 9.8zM767.401 176c-9.201 4.001-23.201 3.599-30.4-8.801v8.801h-16.399v-73.4h16.399v41.4c0 23.201 19 20.201 25.6 16.801l4.8 15.199zM788.6 139.4c0 22.799 23.201 30.2 41.4 16.801l7.601 13c-23.201 18.199-65.4 8.2-65.4-30.001 0-39.601 44.8-47.601 65.4-30.001l-7.601 13c-18.401-13-41.4-5.199-41.4 17.201zM921.999 176h-16.399v-8.801c-16.599 22.001-59.799 9.6-59.799-27.799 0-38.4 44.8-49.4 59.799-27.799v-9.201h16.399v73.6zM989.399 176c-4.8 2.401-22.001 5.801-30.4-8.801v8.801h-15.8v-73.4h15.8v41.4c0 22.001 17.999 20.6 25.6 16.801l4.8 15.199zM1070.001 205.801h-15.8v-38.6c-16.399 21.801-59.799 10.199-59.799-27.799 0-38.799 45-49.201 59.799-27.799v-9.203h15.8v103.401zM1085.199 355.999v-9.201h1.6v9.201h3.799v1.6h-9.201v-1.6h3.802zM1098.401 108.401c0 1.001 0 2.199-0.599 3.2-0.599 0.599-1.001 1.6-1.6 2.199s-1.6 1.001-2.199 1.6c-1.001 0-2.199 0.599-3.2 0.599-0.599 0-1.6-0.599-2.801-0.599-1.001-0.599-1.6-1.001-2.199-1.6-1.001-0.599-1.6-1.6-1.6-2.199-0.599-1.001-0.599-2.199-0.599-3.2 0-0.599 0-1.6 0.599-2.801 0-0.599 0.599-1.6 1.6-2.199 0.599-0.599 1.001-1.001 2.199-1.6 1.001-0.599 2.199-0.599 2.801-0.599 1.001 0 2.199 0 3.2 0.599 0.599 0.599 1.6 1.001 2.199 1.6s1.001 1.6 1.6 2.199c0.599 1.201 0.599 2.199 0.599 2.801zM1104.801 357.801h-2.801l-3.2-6.999-3.2 6.999h-2.801v-10.801h1.6v8.2l3.2-6.999h2.199l2.801 6.999v-8.2h2.199v10.801zM1113.6 518.799c0 152.399-124.201 276.6-277 276.6-54.4 0-107.799-16.399-153.001-46.2 144.2-118.6 146.401-342.999 0-461 45.199-30.001 99-46.2 153.001-46.2 152.799-0.2 277 123.802 277 276.8z" />
<glyph unicode="&#xe956;" glyph-name="cc-paypal" horiz-adv-x="1331" d="M462.2 443.599c0-24.399-19.4-43-44.001-43-18.401 0-32 10.401-32 30.001 0 24.399 19 44.001 43.4 44.001 18.601 0 32.602-11.402 32.602-31.002zM250.601 540.6h-9.4c-3 0-6.001-1.999-6.4-5.399l-8.599-53.399 16.399 0.599c22.001 0 38.999 3 43 28.401 4.598 26.798-12.401 29.798-35 29.798zM818.601 540.6h-9.001c-3.599 0-6.001-1.999-6.4-5.399l-8.399-53.399 16 0.599c25.999 0 44.001 6.001 44.001 36.001-0.202 21.197-19.203 22.198-36.201 22.198v0zM1241.6 800v-704c0-53-43-96-96-96h-960c-53 0-96 43-96 96v704c0 53 43 96 96 96h960c53 0 96-43 96-96zM346.199 529.201c0 41.999-32.399 56-69.399 56h-80c-5 0-9.999-4.001-10.401-9.4l-32.799-204.201c-0.599-4.001 2.401-8 6.4-8h38.001c5.399 0 10.401 5.801 11 11.4l9.001 53.199c1.999 14.4 26.401 9.4 36.001 9.4 57.198 0 92.196 34.002 92.196 91.602zM514.601 511.601h-38.001c-7.601 0-8-11-8.399-16.399-11.599 17.001-28.401 20.001-47.401 20.001-49.001 0-86.4-43-86.4-90.401 0-38.999 24.399-64.399 63.401-64.399 17.999 0 40.399 9.8 53 23.8-1.001-3-1.999-9.4-1.999-12.401 0-4.6 1.999-8 6.4-8h34.401c5.399 0 9.999 5.801 11 11.4l20.401 128.599c0.596 3.799-2.404 7.8-6.403 7.8zM595.599 315.799l127.401 185.201c1.001 1.001 1.001 1.999 1.001 3.4 0 3.4-3 6.999-6.4 6.999h-38.4c-3.4 0-6.999-1.999-9.001-5l-53-78.001-22.001 75c-1.6 4.401-6.001 8-11 8h-37.399c-3.4 0-6.4-3.599-6.4-6.999 0-2.401 38.999-113.6 42.401-124.201-5.399-7.601-41.001-57.201-41.001-63.201 0-3.599 3-6.4 6.4-6.4h38.4c3.599 0.202 6.999 2.202 8.998 5.202v0zM914.199 529.201c0 41.999-32.399 56-69.399 56h-79.401c-5.399 0-10.401-4.001-11-9.4l-32.399-204.001c-0.399-4.001 2.601-8 6.4-8h41.001c4.001 0 6.999 3 8 6.4l9.001 57.999c1.999 14.4 26.401 9.4 36.001 9.4 56.799 0 91.796 34.002 91.796 91.602v0zM1082.601 511.601h-38.001c-7.601 0-8-11-8.599-16.399-11 17.001-28.001 20.001-47.401 20.001-49.001 0-86.4-43-86.4-90.401 0-38.999 24.399-64.399 63.401-64.399 18.601 0 41.001 9.8 53 23.8-0.599-3-1.999-9.4-1.999-12.401 0-4.6 1.999-8 6.4-8h34.601c5.399 0 9.999 5.801 11 11.4l20.401 128.599c0.596 3.799-2.404 7.8-6.403 7.8zM1177.6 578.199c0 4.001-3 6.999-6.4 6.999h-37c-3 0-6.001-2.401-6.4-5.399l-32.399-208-0.599-1.001c0-3.599 3-6.999 6.999-6.999h33.001c5 0 9.999 5.801 10.401 11.4l32.397 202.401v0.599zM997.601 474.601c-24.399 0-43.4-19.4-43.4-44.001 0-19.4 14.001-30.001 32.399-30.001 24 0 43.4 18.401 43.4 43 0.2 19.599-13.801 31.002-32.399 31.002z" />
<glyph unicode="&#xe957;" glyph-name="cc-stripe" horiz-adv-x="1331" d="M883.4 446.999c0-38.2-17.6-66.801-43.799-66.801-16.599 0-26.601 6.001-33.6 13.399l-0.399 105.603c7.401 8.2 17.6 14.001 33.999 14.001 25.8 0.2 43.799-29 43.799-66.202v0zM1241.6 800v-704c0-53-43-96-96-96h-960c-53 0-96 43-96 96v704c0 53 43 96 96 96h960c53 0 96-43 96-96zM334.001 397.801c0 84.6-108.6 69.399-108.6 101.399 0 11 9.201 15.401 24.2 15.401 21.601 0 49.001-6.6 70.6-18.199v66.798c-23.601 9.4-46.999 13-70.6 13-57.6 0-96-30.001-96-80.399 0-78.6 108.001-65.8 108.001-99.799 0-13.199-11.4-17.4-27.2-17.4-23.601 0-53.801 9.8-77.801 22.6v-67.799c26.401-11.4 53.199-16.2 77.601-16.2 59.197 0.397 99.799 29.399 99.799 80.599v0zM471.8 571.599h-54.001v61.601l-69.399-14.799-0.399-227.799c0-41.999 31.601-73.001 73.8-73.001 23.201 0 40.399 4.201 49.8 9.4v57.8c-9.001-3.599-54.001-16.599-54.001 25.201v101h54.001v60.6h0.2zM619.4 571.599c-9.4 3.4-42.601 9.6-59.2-21l-4.401 21h-61.399v-249.001h70.999v168.801c16.801 22.001 45.199 17.8 54.2 14.799v65.4h-0.2zM707.799 571.599h-71.401v-249.001h71.401v249.001zM707.799 666.199l-71.401-15.201v-57.8l71.401 15.201v57.8zM953.201 448.599c0 82.601-46.999 127.601-96.801 127.601-27.799 0-45.801-13.199-55.601-22.2l-3.599 17.6h-62.6v-331.599l70.999 14.999 0.2 80.399c10.199-7.401 25.4-17.999 50.199-17.999 50.803 0.2 97.203 41.001 97.203 131.2v0zM1177.6 446.2c0 72.801-35.2 130.199-102.6 130.199-67.599 0-108.6-57.4-108.6-129.8 0-85.601 48.399-129.001 117.601-129.001 33.999 0 59.4 7.8 78.799 18.401v57.201c-19.4-9.8-41.6-15.8-69.801-15.8-27.599 0-52.001 9.8-55.201 43h139c0.202 3.999 0.801 18.798 0.801 25.8v0zM1074.401 518.4c-17.8 0-37.399-13.399-37.399-45.399h73.4c-0.003 32-18.604 45.399-36.001 45.399z" />
<glyph unicode="&#xe958;" glyph-name="cc-visa" horiz-adv-x="1331" d="M1029.801 497.4c0 0 15.201-74.401 18.601-89.999h-66.801c6.6 17.8 32 86.999 32 86.999-0.399-0.599 6.6 18.199 10.601 29.801l5.599-26.801zM1241.6 800v-704c0-53-43-96-96-96h-960c-53 0-96 43-96 96v704c0 53 43 96 96 96h960c53 0 96-43 96-96zM394.601 297.6l126.4 310.4h-85l-78.6-212.001-8.599 43-28.001 142.799c-4.6 19.799-18.801 25.4-36.401 26.199h-129.4l-1.4-6.198c31.601-8 59.799-19.599 84.401-34.199l71.601-270.001h85zM583.401 297.201l50.399 310.799h-80.399l-50.199-310.799h80.2zM863.201 398.799c0.399 35.4-21.199 62.4-67.4 84.6-28.201 14.2-45.399 23.8-45.399 38.4 0.399 13.199 14.6 26.801 46.2 26.801 26.199 0.599 45.399-5.601 59.799-11.799l7.201-3.4 11 67.2c-15.8 6.2-41.001 13.199-72 13.199-79.401 0-135.201-42.401-135.601-102.799-0.599-44.6 40-69.399 70.4-84.401 30.999-15.201 41.6-25.201 41.6-38.6-0.399-20.8-25.201-30.4-48.2-30.4-32 0-49.201 5-75.4 16.599l-10.601 5-11.2-69.801c18.801-8.599 53.601-16.2 89.6-16.599 84.398-0.2 139.397 41.6 139.999 105.999v0zM1145.6 297.201l-64.799 310.799h-62.2c-19.2 0-33.8-5.601-41.999-25.8l-119.401-285h84.401c0 0 13.801 38.4 16.801 46.6h103.201c2.401-11 9.6-46.6 9.6-46.6h74.396z" />
<glyph unicode="&#xe959;" glyph-name="chart-area_solid" horiz-adv-x="1331" d="M1153.6 192c13.199 0 24-10.801 24-24v-80c0-13.199-10.801-24-24-24h-976c-13.199 0-24 10.801-24 24v720c0 13.199 10.801 24 24 24h80c13.199 0 24-10.801 24-24v-616h872zM899 641.001l-169.4-113.001-170.601 227.4c-10.199 13.601-30.999 12.6-39.8-1.999l-173.599-289.4v-208h768l-179.799 375.601c-6.4 13-22.802 17.4-34.801 9.4z" />
<glyph unicode="&#xe95a;" glyph-name="chart-bar" horiz-adv-x="1331" d="M1153.6 160c13.199 0 24-10.801 24-24v-48c0-13.199-10.801-24-24-24h-976c-13.199 0-24 10.801-24 24v720c0 13.199 10.801 24 24 24h48c13.199 0 24-10.801 24-24v-648h904zM441.6 280v144c0 13.199-10.801 24-24 24h-48c-13.199 0-24-10.801-24-24v-144c0-13.199 10.801-24 24-24h48c13.199 0 24 10.801 24 24zM633.6 280v400c0 13.199-10.801 24-24 24h-48c-13.199 0-24-10.801-24-24v-400c0-13.199 10.801-24 24-24h48c13.199 0 24 10.801 24 24zM825.6 280v272c0 13.199-10.801 24-24 24h-48c-13.199 0-24-10.801-24-24v-272c0-13.199 10.801-24 24-24h48c13.199 0 24 10.801 24 24zM1017.6 280v464c0 13.199-10.801 24-24 24h-48c-13.199 0-24-10.801-24-24v-464c0-13.199 10.801-24 24-24h48c13.199 0 24 10.801 24 24z" />
<glyph unicode="&#xe95b;" glyph-name="chart-bar_solid" horiz-adv-x="1331" d="M1153.6 192c13.199 0 24-10.801 24-24v-80c0-13.199-10.801-24-24-24h-976c-13.199 0-24 10.801-24 24v720c0 13.199 10.801 24 24 24h80c13.199 0 24-10.801 24-24v-616h872zM537.6 280v144c0 13.199-10.801 24-24 24h-80c-13.199 0-24-10.801-24-24v-144c0-13.199 10.801-24 24-24h80c13.199 0 24 10.801 24 24zM921.6 280v272c0 13.199-10.801 24-24 24h-80c-13.199 0-24-10.801-24-24v-272c0-13.199 10.801-24 24-24h80c13.199 0 24 10.801 24 24zM729.6 280v400c0 13.199-10.801 24-24 24h-80c-13.199 0-24-10.801-24-24v-400c0-13.199 10.801-24 24-24h80c13.199 0 24 10.801 24 24zM1113.6 280v464c0 13.199-10.801 24-24 24h-80c-13.199 0-24-10.801-24-24v-464c0-13.199 10.801-24 24-24h80c13.199 0 24 10.801 24 24z" />
<glyph unicode="&#xe95c;" glyph-name="chart-line_solid" horiz-adv-x="1331" d="M1153.6 192c13.199 0 24-10.801 24-24v-80c0-13.199-10.801-24-24-24h-976c-13.199 0-24 10.801-24 24v720c0 13.199 10.801 24 24 24h80c13.199 0 24-10.801 24-24v-616h872zM1065.6 768h-224c-42.801 0-64.2-51.799-33.999-81.999l65.8-65.8-144-145.8-111.201 111.201c-9.4 9.4-24.399 9.4-33.8 0l-238.001-235.599c-9.4-9.201-9.6-24.399-0.399-33.8l57.001-58.801c9.4-9.6 24.801-9.8 34.199-0.2l164.201 164.201 110.999-110.999c9.4-9.4 24.599-9.4 33.999 0l218.401 218.401 66.801-66.801c30.2-30.205 81.999-8.806 81.999 33.994v224c0 26.601-21.399 48-48 48z" />
<glyph unicode="&#xe95d;" glyph-name="chart-pie_solid" horiz-adv-x="1331" d="M665.6 935.401v-455.401h455.401c13.801 0 24.599 11.599 24 25.4-12.8 244.8-209.001 441.201-454.001 454.001-13.801 0.599-25.4-10.202-25.4-24zM1195 384c13.801 0 24.599-11.599 24-25.4-5.601-106.401-46.4-211.2-122.401-295.601-9.201-10.199-25.201-10.801-35-1.001l-321.999 322.002h455.401zM891.599 94.001c9.6-9.6 9.4-25.6-0.801-34.601-85.199-76.8-198.001-123.4-321.6-123.4-264.397 0.2-479.997 216.399-479.598 481.001 0.399 256.2 201.6 465.201 454.6 478.4 13.801 0.801 25.4-10.199 25.4-24v-455.401l321.999-321.999z" />
<glyph unicode="&#xe95e;" glyph-name="check_solid" horiz-adv-x="1331" d="M501.396 81.193l-332.8 332.8c-19.994 19.994-19.994 52.411 0 72.407l72.407 72.407c19.994 19.996 52.413 19.996 72.407 0l224.189-224.187 480.189 480.187c19.996 19.996 52.416 19.996 72.407 0l72.41-72.407c19.994-19.994 19.994-52.413 0-72.407l-588.8-588.803c-19.999-19.996-52.416-19.996-72.41 0.003v0z" />
<glyph unicode="&#xe95f;" glyph-name="check-circle" horiz-adv-x="1331" d="M665.6 944c-273.933 0-496-222.067-496-496 0-273.935 222.067-496 496-496 273.935 0 496 222.065 496 496 0 273.933-222.065 496-496 496zM665.6 848c221.066 0 400-178.903 400-400 0-221.066-178.903-400-400-400-221.064 0-400 178.903-400 400 0 221.064 178.903 400 400 400zM946.007 587.466l-45.071 45.437c-9.334 9.411-24.53 9.472-33.94 0.136l-282.703-280.435-119.585 120.556c-9.334 9.411-24.53 9.472-33.94 0.138l-45.437-45.071c-9.411-9.334-9.472-24.53-0.136-33.94l181.563-183.032c9.334-9.411 24.53-9.472 33.94-0.138l345.178 342.408c9.408 9.336 9.469 24.532 0.133 33.943v0z" />
<glyph unicode="&#xe960;" glyph-name="check-square" horiz-adv-x="1331" d="M1017.6 896h-704c-53.020 0-96-42.98-96-96v-704c0-53.020 42.98-96 96-96h704c53.020 0 96 42.98 96 96v704c0 53.020-42.98 96-96 96zM1017.6 96h-704v704h704v-704zM945.871 579.448l-345.178-342.408c-9.411-9.334-24.607-9.275-33.94 0.136l-181.56 183.032c-9.334 9.411-9.275 24.607 0.138 33.943l45.437 45.071c9.411 9.334 24.607 9.275 33.94-0.138l119.585-120.553 282.701 280.43c9.411 9.334 24.607 9.275 33.94-0.136l45.071-45.437c9.336-9.411 9.275-24.607-0.136-33.94v0z" />
<glyph unicode="&#xe961;" glyph-name="check-square_solid" horiz-adv-x="1331" d="M1017.6 0h-704c-53.020 0-96 42.98-96 96v704c0 53.020 42.98 96 96 96h704c53.020 0 96-42.98 96-96v-704c0-53.020-42.98-96-96-96zM608.228 196.116l368 368c12.498 12.495 12.498 32.758 0 45.256l-45.253 45.253c-12.498 12.495-32.76 12.498-45.258 0l-300.116-300.116-140.116 140.116c-12.495 12.495-32.758 12.495-45.256 0l-45.253-45.253c-12.495-12.495-12.495-32.758 0-45.253l208-208c12.495-12.498 32.755-12.498 45.253-0.003z" />
<glyph unicode="&#xe962;" glyph-name="chevron-circle-down_solid" horiz-adv-x="1331" d="M1161.6 448c0-273.999-222.001-496-496-496s-496 222.001-496 496 222.001 496 496 496 496-222.001 496-496zM699.599 220.201l270.999 270.999c18.801 18.801 18.801 49.201 0 67.799l-33.999 33.999c-18.801 18.801-49.201 18.801-67.799 0l-203.2-203.197-203.2 203.2c-18.801 18.801-49.201 18.801-67.799 0l-33.999-33.999c-18.801-18.801-18.801-49.201 0-67.799l270.999-270.999c18.801-18.803 49.201-18.803 67.999-0.003z" />
<glyph unicode="&#xe963;" glyph-name="chevron-circle-left_solid" horiz-adv-x="1331" d="M665.6-48c-273.999 0-496 222.001-496 496s222.001 496 496 496 496-222.001 496-496-222.001-496-496-496zM437.801 414.001l270.999-270.999c18.801-18.801 49.201-18.801 67.799 0l33.999 33.999c18.801 18.801 18.801 49.201 0 67.799l-203.197 203.2 203.2 203.2c18.801 18.801 18.801 49.201 0 67.799l-33.999 33.999c-18.801 18.801-49.201 18.801-67.799 0l-271.002-270.999c-18.801-18.801-18.801-49.201 0-67.999z" />
<glyph unicode="&#xe964;" glyph-name="chevron-circle-right_solid" horiz-adv-x="1331" d="M665.6 944c273.999 0 496-222.001 496-496s-222.001-496-496-496-496 222.001-496 496 222.001 496 496 496zM893.399 481.999l-270.999 271.002c-18.801 18.801-49.201 18.801-67.799 0l-33.999-33.999c-18.801-18.801-18.801-49.201 0-67.799l203.197-203.203-203.2-203.2c-18.801-18.801-18.801-49.201 0-67.799l33.999-33.999c18.801-18.801 49.201-18.801 67.799 0l270.999 270.999c18.803 18.798 18.803 49.198 0.003 67.999z" />
<glyph unicode="&#xe965;" glyph-name="chevron-circle-up_solid" horiz-adv-x="1331" d="M169.6 448c0 273.999 222.001 496 496 496s496-222.001 496-496-222.001-496-496-496-496 222.001-496 496zM631.601 675.799l-271.002-270.999c-18.801-18.801-18.801-49.201 0-67.799l33.999-33.999c18.801-18.801 49.201-18.801 67.799 0l203.203 203.197 203.2-203.2c18.801-18.801 49.201-18.801 67.799 0l33.999 33.999c18.801 18.801 18.801 49.201 0 67.799l-270.999 271.002c-18.798 18.801-49.198 18.801-67.999 0z" />
<glyph unicode="&#xe966;" glyph-name="chevron-down_solid" horiz-adv-x="1331" d="M631.657 197.048l-388.685 388.687c-18.747 18.747-18.747 49.137 0 67.881l45.332 45.335c18.714 18.714 49.044 18.749 67.802 0.079l309.494-308.042 309.491 308.045c18.757 18.67 49.088 18.634 67.802-0.079l45.332-45.335c18.747-18.744 18.747-49.137 0-67.881l-388.682-388.69c-18.747-18.744-49.139-18.744-67.886 0v0z" />
<glyph unicode="&#xe967;" glyph-name="chevron-left_solid" horiz-adv-x="1331" d="M414.641 481.94l388.7 388.68c18.739 18.739 49.139 18.739 67.881 0l45.34-45.34c18.721-18.721 18.739-49.039 0.079-67.799l-308.060-309.481 308.040-309.499c18.68-18.76 18.639-49.080-0.079-67.799l-45.34-45.34c-18.739-18.739-49.139-18.739-67.881 0l-388.68 388.698c-18.742 18.739-18.742 49.139 0 67.881z" />
<glyph unicode="&#xe968;" glyph-name="chevron-right_solid" horiz-adv-x="1331" d="M916.552 414.057l-388.69-388.685c-18.747-18.747-49.137-18.747-67.881 0l-45.335 45.332c-18.714 18.716-18.749 49.044-0.079 67.802l308.045 309.494-308.045 309.491c-18.67 18.757-18.634 49.088 0.079 67.802l45.335 45.332c18.744 18.747 49.137 18.747 67.881 0l388.687-388.687c18.747-18.742 18.747-49.134 0.003-67.881z" />
<glyph unicode="&#xe969;" glyph-name="chevron-up_solid" horiz-adv-x="1331" d="M699.543 698.952l388.685-388.687c18.747-18.744 18.747-49.137 0-67.881l-45.332-45.335c-18.716-18.716-49.044-18.749-67.802-0.079l-309.494 308.042-309.491-308.045c-18.757-18.67-49.088-18.632-67.802 0.079l-45.332 45.335c-18.747 18.744-18.747 49.137 0 67.884l388.687 388.685c18.742 18.747 49.134 18.747 67.881 0.003v0z" />
<glyph unicode="&#xe96a;" glyph-name="chrome" horiz-adv-x="1331" d="M432.599 525l-152.801 234.801c95.201 118.4 238.001 183.601 384 184.2 84.6 0.599 171-21 249.6-66.401 86.799-50.401 152.801-122.801 194.801-206.001l-410.598 21.601c-116.201 6.799-226.801-58.598-265.001-168.2zM498.401 448c0-92.401 74.801-167.201 167.201-167.201s167.201 74.801 167.201 167.201-74.803 167.199-167.204 167.199-167.199-74.598-167.199-167.199zM1128.2 626.399l-279.401-14.4c75.799-88.599 77-216.399 13.199-314.401l-224.2-344.801c93-5 188.8 15.401 275.599 65.8 214.802 124.004 301.804 384.005 214.802 607.803zM437 352.799l-186.598 367.002c-51-78.001-80.801-171.599-80.801-271.8 0-248 181.601-453.399 419-489.8l127.401 249.6c-115.2-21.601-226.401 41.6-279.002 144.998z" />
<glyph unicode="&#xe96b;" glyph-name="clipboard" horiz-adv-x="1331" d="M953.6 832h-160c0 70.579-57.421 128-128 128s-128-57.421-128-128h-160c-53.020 0-96-42.98-96-96v-704c0-53.020 42.98-96 96-96h576c53.020 0 96 42.98 96 96v704c0 53.020-42.98 96-96 96zM941.601 32h-552c-6.628 0-12.001 5.373-12.001 12.001v679.997c0 6.628 5.373 12.001 12.001 12.001h83.999v-72c0-13.253 10.747-24 24-24h336c13.256 0 24 10.747 24 24v72h84.001c6.628 0 12.001-5.373 12.001-12.001v-680c-0.003-6.625-5.376-11.999-12.001-11.999zM665.6 880c26.509 0 48-21.491 48-48s-21.491-48-48-48-48 21.491-48 48 21.491 48 48 48z" />
<glyph unicode="&#xe96c;" glyph-name="clipboard_solid" horiz-adv-x="1331" d="M1049.6 736v-704c0-53.020-42.98-96-96-96h-576c-53.020 0-96 42.98-96 96v704c0 53.020 42.98 96 96 96h160c0 70.579 57.421 128 128 128s128-57.421 128-128h160c53.020 0 96-42.98 96-96zM665.6 880c-26.509 0-48-21.491-48-48s21.491-48 48-48 48 21.491 48 48-21.491 48-48 48zM857.6 651.999v40c0 6.628-5.373 12.001-12.001 12.001h-359.997c-6.628 0-12.001-5.373-12.001-12.001v-40c0-6.628 5.373-12.001 12.001-12.001h360c6.625 0.003 11.999 5.376 11.999 12.001z" />
<glyph unicode="&#xe96d;" glyph-name="clock" horiz-adv-x="1331" d="M665.6 944c-273.999 0-496-222.001-496-496s222.001-496 496-496 496 222.001 496 496-222.001 496-496 496zM665.6 48c-221 0-400 179-400 400s179 400 400 400 400-179 400-400-179-400-400-400zM789.199 256.799l-169.8 123.4c-6.2 4.6-9.8 11.799-9.8 19.4v328.402c0 13.199 10.801 24 24 24h64c13.199 0 24-10.801 24-24v-283.4l133.601-97.201c10.801-7.8 13-22.799 5.199-33.6l-37.601-51.799c-7.8-10.601-22.799-13-33.6-5.202v0z" />
<glyph unicode="&#xe96e;" glyph-name="clock_solid" horiz-adv-x="1331" d="M665.6 944c-273.999 0-496-222.001-496-496s222.001-496 496-496 496 222.001 496 496-222.001 496-496 496zM779.799 243.799l-176.399 128.2c-6.2 4.6-9.8 11.799-9.8 19.4v336.602c0 13.199 10.801 24 24 24h96c13.199 0 24-10.801 24-24v-275.4l126.999-92.401c10.801-7.8 13-22.799 5.199-33.6l-56.399-77.601c-7.798-10.598-22.799-13-33.6-5.199v0z" />
<glyph unicode="&#xe96f;" glyph-name="clone" horiz-adv-x="1331" d="M1081.6 960h-640c-53.020 0-96-42.98-96-96v-96h-96c-53.020 0-96-42.98-96-96v-640c0-53.020 42.98-96 96-96h640c53.020 0 96 42.98 96 96v96h96c53.020 0 96 42.98 96 96v640c0 53.020-42.98 96-96 96zM877.601 32h-616c-6.628 0-12.001 5.373-12.001 12.001v615.997c0 6.628 5.373 12.001 12.001 12.001h83.999v-448c0-53.020 42.98-96 96-96h448v-84.001c0-6.625-5.373-11.999-11.999-11.999zM1069.601 224h-616c-6.628 0-12.001 5.373-12.001 12.001v615.997c0 6.628 5.373 12.001 12.001 12.001h616c6.628 0 12.001-5.373 12.001-12.001v-616c-0.003-6.625-5.376-11.999-12.001-11.999z" />
<glyph unicode="&#xe970;" glyph-name="clone_solid" horiz-adv-x="1331" d="M1081.6 960c53.020 0 96-42.98 96-96v-576c0-53.020-42.98-96-96-96h-576c-53.020 0-96 42.98-96 96v576c0 53.020 42.98 96 96 96h576zM505.6 128c-88.223 0-160 71.775-160 160v416h-96c-53.020 0-96-42.98-96-96v-576c0-53.020 42.98-96 96-96h576c53.020 0 96 42.98 96 96v96h-416z" />
<glyph unicode="&#xe971;" glyph-name="cloud_solid" horiz-adv-x="1331" d="M1100.769 506.88c8.279 21.448 12.831 44.751 12.831 69.12 0 106.038-85.962 192-192 192-39.457 0-76.129-11.907-106.632-32.317-55.283 95.821-158.792 160.317-277.368 160.317-176.732 0-320-143.268-320-320 0-5.455 0.141-10.877 0.407-16.266-112.064-39.424-192.407-146.189-192.407-271.734 0-159.058 128.942-288 288-288h736c141.386 0 256 114.614 256 256 0 123.86-87.964 227.172-204.831 250.88z" />
<glyph unicode="&#xe972;" glyph-name="cloud-download-alt_solid" horiz-adv-x="1331" d="M1305.6 256c0-141.386-114.614-256-256-256h-736c-159.058 0-288 128.942-288 288 0 125.545 80.343 232.31 192.407 271.734-0.269 5.417-0.407 10.842-0.407 16.266 0 176.732 143.268 320 320 320 118.577 0 222.085-64.497 277.368-160.317 30.502 20.411 67.174 32.317 106.632 32.317 106.038 0 192-85.962 192-192 0-24.369-4.549-47.672-12.831-69.12 116.867-23.708 204.831-127.020 204.831-250.88zM812.344 384h-130.744v224c0 17.674-14.328 32-32 32h-96c-17.672 0-32-14.326-32-32v-224h-130.747c-28.508 0-42.785-34.468-22.628-54.628l210.747-210.747c12.495-12.495 32.758-12.495 45.253 0l210.747 210.747c20.16 20.16 5.883 54.628-22.628 54.628v0z" />
<glyph unicode="&#xe973;" glyph-name="cloud-upload-alt_solid" horiz-adv-x="1331" d="M1305.6 256c0-141.386-114.614-256-256-256h-736c-159.058 0-288 128.942-288 288 0 125.545 80.343 232.31 192.407 271.734-0.269 5.417-0.407 10.842-0.407 16.266 0 176.732 143.268 320 320 320 118.577 0 222.085-64.497 277.368-160.317 30.502 20.411 67.174 32.317 106.632 32.317 106.038 0 192-85.962 192-192 0-24.369-4.549-47.672-12.831-69.12 116.867-23.708 204.831-127.020 204.831-250.88zM834.972 438.628l-210.744 210.744c-12.495 12.495-32.758 12.495-45.253 0l-210.747-210.744c-20.16-20.16-5.88-54.628 22.625-54.628h130.747v-224c0-17.674 14.328-32 32-32h96c17.672 0 32 14.326 32 32v224h130.744c28.511 0 42.788 34.468 22.628 54.628v0z" />
<glyph unicode="&#xe974;" glyph-name="cog_solid" horiz-adv-x="1331" d="M1043.174 377.8l85.233-49.198c9.736-5.617 14.252-17.236 10.918-27.971-22.139-71.286-59.94-135.685-109.379-189.174-7.621-8.251-19.937-10.12-29.663-4.508l-85.171 49.19c-35.832-30.702-77.030-54.523-121.518-70.259v-98.365c0-11.238-7.79-20.972-18.752-23.434-69.914-15.7-144.998-16.512-218.44-0.015-10.98 2.468-18.806 12.193-18.806 23.447v98.368c-44.488 15.734-85.686 39.555-121.518 70.259l-85.169-49.19c-9.725-5.612-22.044-3.743-29.663 4.508-49.436 53.489-87.237 117.888-109.379 189.174-3.336 10.732 1.183 22.349 10.918 27.971l85.233 49.198c-8.561 46.408-8.561 93.99 0 140.398l-85.23 49.198c-9.736 5.617-14.252 17.236-10.918 27.971 22.139 71.283 59.94 135.683 109.379 189.171 7.621 8.251 19.937 10.122 29.663 4.508l85.169-49.19c35.835 30.705 77.033 54.523 121.521 70.262v98.365c0 11.236 7.79 20.972 18.755 23.434 69.911 15.7 144.998 16.512 218.44 0.015 10.98-2.465 18.806-12.193 18.806-23.447v-98.368c44.488-15.736 85.686-39.555 121.518-70.259l85.169 49.19c9.728 5.614 22.044 3.74 29.665-4.508 49.436-53.489 87.237-117.888 109.379-189.174 3.336-10.732-1.183-22.349-10.918-27.971l-85.235-49.198c8.558-46.408 8.558-93.988-0.005-140.398zM825.6 448c0 88.223-71.775 160-160 160-88.223 0-160-71.777-160-160 0-88.225 71.777-160 160-160 88.225 0 160 71.775 160 160z" />
<glyph unicode="&#xe975;" glyph-name="cogs_solid" horiz-adv-x="1331" d="M1049.8 577.999l-16.399-28.6c-6.001-10.601-18.801-14.999-30.2-10.801-23.601 8.801-45.199 21.399-64.2 37.199-9.201 7.601-11.599 21-5.601 31.401l16.399 28.6c-13.801 16-24.599 34.601-31.8 54.799h-33.001c-12.001 0-22.4 8.599-24.399 20.6-4.001 24-4.201 49.201 0 74.199 1.999 12.001 12.401 20.8 24.399 20.8h33.001c7.201 20.201 17.999 38.799 31.8 54.799l-16.399 28.603c-6.001 10.401-3.799 23.8 5.601 31.401 19 15.8 40.801 28.401 64.2 37.199 11.4 4.201 24.2-0.2 30.2-10.801l16.399-28.6c21 3.799 42.401 3.799 63.401 0l16.399 28.6c6.001 10.601 18.801 14.999 30.2 10.801 23.601-8.801 45.199-21.399 64.2-37.199 9.201-7.601 11.599-21 5.601-31.401l-16.399-28.6c13.801-16 24.599-34.601 31.8-54.799h33.001c12.001 0 22.4-8.599 24.399-20.6 4.001-24 4.201-49.201 0-74.199-1.999-12.001-12.401-20.8-24.399-20.8h-33.001c-7.201-20.201-17.999-38.799-31.8-54.799l16.399-28.6c6.001-10.401 3.799-23.8-5.601-31.401-19-15.8-40.801-28.401-64.2-37.199-11.4-4.201-24.2 0.2-30.2 10.801l-16.399 28.6c-20.8-3.802-42.401-3.802-63.401-0.003zM1028.8 695.601c77-59.2 164.8 28.6 105.6 105.6-77 59.4-164.8-28.6-105.6-105.6zM798.2 387.799l67.4-33.6c20.201-11.599 29-36.201 21-58.199-17.8-48.399-52.8-92.8-85.199-131.599-14.799-17.8-40.399-22.2-60.6-10.601l-58.199 33.6c-32-27.4-69.199-49.201-109.801-63.401v-67.2c0-23.201-16.599-43.2-39.401-47.201-49.201-8.399-100.8-8.801-151.8 0-22.999 4.001-40 23.8-40 47.201v67.2c-40.599 14.4-77.801 36.001-109.801 63.401l-58.199-33.4c-20.001-11.599-45.801-7.201-60.6 10.601-32.399 38.799-66.601 83.2-84.401 131.4-8 21.801 0.801 46.4 21 58.199l66.601 33.6c-7.8 41.8-7.8 84.8 0 126.799l-66.601 33.8c-20.201 11.599-29.199 36.201-21 57.999 17.8 48.399 52.001 92.8 84.401 131.599 14.799 17.8 40.399 22.2 60.6 10.601l58.199-33.6c32 27.4 69.199 49.201 109.801 63.401v67.402c0 22.999 16.399 43 39.201 46.999 49.201 8.399 101 8.801 152 0.2 22.999-4.001 40-23.8 40-47.201v-67.2c40.599-14.4 77.801-36.001 109.801-63.401l58.199 33.603c20.001 11.599 45.801 7.201 60.6-10.601 32.399-38.799 66.401-83.2 84.201-131.599 8-21.801 0.2-46.4-20.001-58.199l-67.4-33.6c7.8-42.002 7.8-85 0-127.002zM563 345.6c118.4 153.999-57.4 329.8-211.4 211.4-118.4-153.999 57.4-329.8 211.4-211.4zM1049.8-19.799l-16.399-28.6c-6.001-10.601-18.801-14.999-30.2-10.801-23.601 8.801-45.199 21.399-64.2 37.199-9.201 7.601-11.599 21-5.601 31.401l16.399 28.6c-13.801 16-24.599 34.601-31.8 54.799h-33.001c-12.001 0-22.4 8.599-24.399 20.6-4.001 24-4.201 49.201 0 74.199 1.999 12.001 12.401 20.8 24.399 20.8h33.001c7.201 20.201 17.999 38.799 31.8 54.799l-16.399 28.6c-6.001 10.401-3.799 23.8 5.601 31.401 19 15.8 40.801 28.401 64.2 37.199 11.4 4.201 24.2-0.2 30.2-10.801l16.399-28.6c21 3.799 42.401 3.799 63.401 0l16.399 28.6c6.001 10.601 18.801 14.999 30.2 10.801 23.601-8.801 45.199-21.399 64.2-37.199 9.201-7.601 11.599-21 5.601-31.401l-16.399-28.6c13.801-16 24.599-34.601 31.8-54.799h33.001c12.001 0 22.4-8.599 24.399-20.6 4.001-24 4.201-49.201 0-74.199-1.999-12.001-12.401-20.8-24.399-20.8h-33.001c-7.201-20.201-17.999-38.799-31.8-54.799l16.399-28.6c6.001-10.401 3.799-23.8-5.601-31.401-19-15.8-40.801-28.401-64.2-37.199-11.4-4.201-24.2 0.2-30.2 10.801l-16.399 28.6c-20.8-3.802-42.401-3.802-63.401 0zM1028.8 97.999c77-59.2 164.8 28.6 105.6 105.6-77 59.2-164.8-28.6-105.6-105.6v0z" />
<glyph unicode="&#xe976;" glyph-name="columns_solid" horiz-adv-x="1331" d="M1081.6 896h-832c-53.020 0-96-42.98-96-96v-704c0-53.020 42.98-96 96-96h832c53.020 0 96 42.98 96 96v704c0 53.020-42.98 96-96 96zM601.6 128h-320v512h320v-512zM1049.6 128h-320v512h320v-512z" />
<glyph unicode="&#xe977;" glyph-name="comment" horiz-adv-x="1331" d="M665.6 896c-318.001 0-576-186.199-576-416 0-98.601 47.401-189 126.6-260.401-17.4-46.6-44.201-65.4-74.199-86.2-22.2-15.401-64.399-39.401-49.201-86.4 10.199-30.799 41.8-49.4 76.201-46.6 115.4 9.201 222.4 38.4 313.999 85 57.4-13.801 118.799-21.399 182.4-21.399 318.2 0 576 185.999 576 416 0.2 229.801-257.6 416-575.8 416zM665.6 160c-65.001 0-130.801 8.801-194.601 28.001-64.599-38.001-157.399-92.001-269.399-108.001 64 48 113.6 123.2 122.401 176.801-76.201 51.999-138.401 129.8-138.401 223.199 0 141.801 172.6 320 480 320s480-178.199 480-320c0-142.001-172.6-320-480-320z" />
<glyph unicode="&#xe978;" glyph-name="comments" horiz-adv-x="1331" d="M1238.615 72.279c-10.842-42.522-49.139-72.279-93.023-72.279-64.492 0-133.023 19.981-204.201 59.466-101.281-23.252-218.301-15.752-315.919 26.875 82.289 5.837 160.722 24.678 232.663 57.411 32.643 2.44 65.347 8.64 97.26 19.185 43.013-27.668 115.53-66.936 190.198-66.936-64 34.911-86.438 77.916-92.319 117.005 50.885 37.696 92.319 94.364 92.319 162.271 0 20.989-4.767 43.069-14.083 64.932 14.81 51.86 17.313 100.388 10.371 147.876 64.328-60.92 99.712-138.255 99.712-212.808 0-67.786-25.828-130.094-69.952-182.241 5.304-4.076 11.848-8.351 19.924-12.754 38.52-21.015 57.892-65.477 47.050-108.001v0zM569.603 800c-245.868 0-383.997-145.754-383.997-261.816 0-76.393 49.718-140.145 110.781-182.554-7.053-43.976-33.981-92.357-110.781-131.63 89.6 0 176.62 44.178 228.239 75.305 51.041-15.811 103.767-22.94 155.758-22.94 245.99 0 383.997 145.682 383.997 261.816 0 116.055-138.115 261.819-383.997 261.819zM569.603 896c300.383 0 479.997-188.052 479.997-357.816 0-45.491-13.012-92.787-37.632-136.783-23.754-42.452-57.078-80.586-99.044-113.347-43.187-33.715-93.599-60.091-149.827-78.395-59.709-19.438-124.808-29.292-193.492-29.292-48.899 0-96.681 5.376-142.584 16.010-84.797-45.402-165.85-68.378-241.413-68.378-44.36 0-82.944 30.395-93.33 73.523-10.388 43.126 10.13 87.754 49.623 107.953 15.327 7.836 26.647 15.473 35.039 22.587-14.784 15.657-27.904 32.248-39.268 49.687-31.89 48.94-48.059 101.573-48.059 156.431-0.003 169.3 179.003 357.819 479.99 357.819z" />
<glyph unicode="&#xe979;" glyph-name="compass" horiz-adv-x="1331" d="M665.6 944c-273.933 0-496-222.067-496-496 0-273.935 222.067-496 496-496 273.935 0 496 222.065 496 496 0 273.933-222.065 496-496 496zM665.6 48c-221.064 0-400 178.903-400 400 0 221.064 178.903 400 400 400 221.066 0 400-178.903 400-400 0-221.066-178.903-400-400-400zM848.253 672.264l-66.719-275.558c-2.171-8.96-6.874-17.101-13.545-23.46l-205.281-195.558c-34.207-32.586-91.121-0.868-79.759 46.047l66.719 275.558c2.168 8.957 6.871 17.101 13.545 23.46l205.281 195.558c34.57 32.94 90.99 0.351 79.759-46.047zM665.6 512c-35.346 0-64-28.654-64-64s28.654-64 64-64c35.346 0 64 28.654 64 64s-28.654 64-64 64z" />
<glyph unicode="&#xe97a;" glyph-name="copy" horiz-adv-x="1331" d="M1085.484 828.116l-103.764 103.764c-18.004 18.004-42.424 28.119-67.884 28.119h-344.236c-53.020 0-96-42.98-96-96v-96h-160c-53.020 0-96-42.98-96-96v-640c0-53.020 42.98-96 96-96h448c53.020 0 96 42.98 96 96v96h160c53.020 0 96 42.98 96 96v536.236c0 25.462-10.115 49.879-28.116 67.881zM749.601 32h-424c-6.628 0-12.001 5.373-12.001 12.001v615.997c0 6.628 5.373 12.001 12.001 12.001h147.999v-448c0-53.020 42.98-96 96-96h192v-84.001c0-6.625-5.373-11.999-11.999-11.999zM1005.601 224h-424c-6.628 0-12.001 5.373-12.001 12.001v615.997c0 6.628 5.373 12.001 12.001 12.001h211.999v-176c0-26.509 21.491-48 48-48h176v-404.001c0-6.625-5.373-11.999-11.999-11.999zM1017.6 736h-128v128h19.264c3.18 0 6.234-1.265 8.484-3.515l96.735-96.737c2.253-2.25 3.515-5.304 3.515-8.486v-19.261z" />
<glyph unicode="&#xe97b;" glyph-name="copy_solid" horiz-adv-x="1331" d="M857.6 64v-80c0-26.509-21.491-48-48-48h-544c-26.509 0-48 21.491-48 48v736c0 26.509 21.491 48 48 48h144v-592c0-61.757 50.243-112 112-112h336zM857.6 752v208h-336c-26.509 0-48-21.491-48-48v-736c0-26.509 21.491-48 48-48h544c26.509 0 48 21.491 48 48v528h-208c-26.399 0-48 21.599-48 48zM1099.543 814.057l-131.886 131.886c-9.001 8.998-21.21 14.057-33.94 14.057h-12.116v-192h192v12.116c0 12.731-5.059 24.94-14.057 33.94z" />
<glyph unicode="&#xe97c;" glyph-name="copyright" horiz-adv-x="1331" d="M665.6 944c-273.933 0-496-222.067-496-496 0-273.935 222.067-496 496-496 273.935 0 496 222.065 496 496 0 273.933-222.065 496-496 496zM665.6 48c-221.064 0-400 178.903-400 400 0 221.064 178.903 400 400 400 221.066 0 400-178.903 400-400 0-221.066-178.903-400-400-400zM880.302 250.127c-19.228-19.423-91.059-82.793-208.131-82.793-164.859 0-280.968 122.849-280.968 283.136 0 158.303 120.55 278.802 279.524 278.802 111.063 0 177.477-53.24 195.187-69.558 8.589-7.903 10.227-20.854 3.871-30.643l-36.311-56.225c-7.68-11.899-23.931-14.564-34.998-5.842-17.19 13.55-63.626 45.074-123.415 45.074-96.607 0-155.832-70.661-155.832-160.164 0-83.18 53.775-167.383 156.554-167.383 65.313 0 113.684 38.077 131.451 54.451 10.54 9.715 27.192 8.077 35.64-3.474l39.731-54.341c6.999-9.5 6.019-22.682-2.304-31.040v0z" />
<glyph unicode="&#xe97d;" glyph-name="credit-card" horiz-adv-x="1331" d="M1145.4 896h-959.601c-53.199 0-96.2-43-96.2-96v-704c0-53 43-96 96.2-96h959.601c53.199 0 96.2 43 96.2 96v704c0 53-43 96-96.2 96v0zM197.801 800h935.601c6.6 0 12.001-5.399 12.001-12.001v-83.999h-959.603v83.999c0 6.602 5.402 12.001 12.001 12.001zM1133.399 96h-935.598c-6.6 0-12.001 5.399-12.001 12.001v339.999h959.601v-340.001c0-6.6-5.399-11.999-12.001-11.999zM473.6 296v-80c0-13.199-10.801-24-24-24h-144c-13.199 0-24 10.801-24 24v80c0 13.199 10.801 24 24 24h144c13.199 0 24-10.801 24-24zM857.6 296v-80c0-13.199-10.801-24-24-24h-272c-13.199 0-24 10.801-24 24v80c0 13.199 10.801 24 24 24h272c13.199 0 24-10.801 24-24z" />
<glyph unicode="&#xe97e;" glyph-name="credit-card_solid" horiz-adv-x="1331" d="M89.6 96c0-53 43-96 96-96h960c53 0 96 43 96 96v352h-1152v-352zM473.6 232c0 13.199 10.801 24 24 24h272c13.199 0 24-10.801 24-24v-80c0-13.199-10.801-24-24-24h-272c-13.199 0-24 10.801-24 24v80zM217.6 232c0 13.199 10.801 24 24 24h144c13.199 0 24-10.801 24-24v-80c0-13.199-10.801-24-24-24h-144c-13.199 0-24 10.801-24 24v80zM1241.6 800v-96h-1152v96c0 53 43 96 96 96h960c53 0 96-43 96-96z" />
<glyph unicode="&#xe97f;" glyph-name="css3" horiz-adv-x="1331" d="M1113.6 896l-128-736-446.6-160-385.4 160 39.201 189.601h164.001l-16-81.201 232.801-88.801 268.201 88.801 37.601 194.199h-666.806l32 164.001h667.4l21 105.4h-666.801l32.602 163.999h814.799z" />
<glyph unicode="&#xe980;" glyph-name="database_solid" horiz-adv-x="1331" d="M1113.6 813.714v-91.428c0-80.573-200.666-146.286-448-146.286s-448 65.713-448 146.286v91.428c0 80.573 200.666 146.286 448 146.286s448-65.713 448-146.286zM1113.6 608v-205.714c0-80.571-200.666-146.286-448-146.286s-448 65.715-448 146.286v205.714c96.251-66.286 272.417-97.144 448-97.144 175.585 0 351.747 30.858 448 97.144zM1113.6 288v-205.714c0-80.571-200.666-146.286-448-146.286s-448 65.715-448 146.286v205.714c96.251-66.286 272.417-97.144 448-97.144 175.585 0 351.747 30.858 448 97.144z" />
<glyph unicode="&#xe981;" glyph-name="dollar-sign_solid" horiz-adv-x="1331" d="M572.424 621.251c0 46.674 43.072 76.833 109.729 76.833 53.453 0 108.232-24.527 152.922-56.666 11.761-8.458 28.26-4.708 35.149 8.036l47.101 87.096c5.297 9.797 3.192 21.983-5.151 29.361-48.558 42.952-118.267 68.178-182.574 75.612v94.477c0 13.253-10.744 24-24 24h-80c-13.253 0-24-10.747-24-24v-99.663c-117.253-26.58-194.598-111.834-194.598-217.28 0-247.066 369.531-221.619 369.531-338.826 0-39.644-32.622-82.314-104.248-82.314-61.501 0-125.865 31.759-175.698 71.772-10.619 8.527-26.163 6.63-34.317-4.28l-60.777-81.334c-7.255-9.71-6.149-23.314 2.604-31.695 48.097-46.039 118.497-82.509 197.501-95.946v-96.435c0-13.256 10.747-24 24-24h80c13.256 0 24 10.744 24 24v94.876c131.441 20.429 212.352 118.372 212.352 233.032 0.003 239.378-369.526 207.416-369.526 333.345z" />
<glyph unicode="&#xe982;" glyph-name="edge" horiz-adv-x="1331" d="M205.028 503.675c0.223 0.323 0.461 0.645 0.686 0.97-0.044-0.323-0.090-0.645-0.131-0.97h-0.556zM1126.172 472.658c0 88.064-15.508 168.929-57.603 244.81-81.974 146.775-227.144 226.529-397.184 226.529-279.862 0.556-436.552-210.424-465.674-439.355 84.856 122.624 234.145 242.752 440.75 249.93 0 0 219.333 0 198.838-209.915h-351.706c12.739 74.772 37.11 117.972 68.68 157.852-150.095-69.786-243.699-192.192-241.485-376.63 1.659-142.897 100.25-289.672 241.487-343.951 166.715-63.695 385.551-14.4 480.264 42.647v208.806c-161.728-112.988-541.742-121.851-544.509 135.145h628.147l-0.005 104.131z" />
<glyph unicode="&#xe983;" glyph-name="edit" horiz-adv-x="1331" d="M894.2 270.2l64 64c9.999 9.999 27.4 3 27.4-11.4v-290.801c0-53-43-96-96-96h-704c-53 0-96 43-96 96v704c0 53 43 96 96 96h547c14.2 0 21.399-17.201 11.4-27.4l-64-64c-3-3-6.999-4.6-11.4-4.6h-483v-704h704v227c0 4.198 1.6 8.2 4.6 11.2zM1207.401 673.8l-525.202-525.199-180.8-20.001c-52.401-5.801-97.001 38.4-91.2 91.2l20.001 180.8 525.199 525.202c45.801 45.801 119.8 45.801 165.399 0l86.4-86.4c45.801-45.801 45.801-120 0.202-165.601v0zM1009.8 611.999l-116.201 116.201-371.599-371.799-14.6-130.601 130.601 14.6 371.799 371.599zM1139.4 771.4l-86.4 86.4c-8.2 8.2-21.601 8.2-29.601 0l-61.801-61.801 116.201-116.201 61.801 61.801c8 8.402 8 21.601-0.2 29.801z" />
<glyph unicode="&#xe984;" glyph-name="ellipsis-h_solid" horiz-adv-x="1331" d="M809.6 448c0-79.601-64.399-144-144-144s-144 64.399-144 144 64.399 144 144 144 144-64.399 144-144zM1017.6 592c-79.601 0-144-64.399-144-144s64.399-144 144-144 144 64.399 144 144-64.399 144-144 144zM313.6 592c-79.601 0-144-64.399-144-144s64.399-144 144-144 144 64.399 144 144-64.399 144-144 144z" />
<glyph unicode="&#xe985;" glyph-name="ellipsis-v_solid" horiz-adv-x="1331" d="M665.6 592c79.601 0 144-64.399 144-144s-64.399-144-144-144-144 64.399-144 144 64.399 144 144 144zM521.6 800c0-79.601 64.399-144 144-144s144 64.399 144 144-64.399 144-144 144-144-64.399-144-144zM521.6 96c0-79.601 64.399-144 144-144s144 64.399 144 144-64.399 144-144 144-144-64.399-144-144z" />
</font>
</defs>
</svg>
